<?xml version="1.0" encoding="utf-8"?>
<!-- Generator: Adobe Illustrator 27.5.0, SVG Export Plug-In . SVG Version: 6.00 Build 0)  -->
<svg version="1.1" xmlns="http://www.w3.org/2000/svg" xmlns:xlink="http://www.w3.org/1999/xlink" x="0px" y="0px"
	 viewBox="0 0 500 500" style="enable-background:new 0 0 500 500;" xml:space="preserve">
<g id="BACKGROUND">
	<g>
		<rect style="fill:#FFFFFF;" width="500" height="500"/>
		<g>
			<g>
				<path style="fill:#807BEF;" d="M427.795,283.205c-7.098-4.126-13.913-11.787-16.93-19.52c-1.85-4.743-1.438-10.958-1.801-15.98
					c-0.436-6.036-0.781-12.078-1.034-18.124c-0.475-11.332-0.663-22.879-4.272-33.631c-3.417-10.183-10.713-20.304-21.31-23.751
					c-9.109-2.963-16.893-3.419-21.633-12.982c-7.852-15.844-3.655-37.176-21.73-46.527c-10.269-5.313-22.423-5.198-33.954-4.345
					c-11.531,0.853-23.335,2.298-34.495-0.724c-9.493-2.57-17.817-8.191-26.692-12.429c-8.875-4.238-19.212-7.113-28.473-3.805
					c-9.476,3.385-15.712,12.506-19.618,21.779c-3.907,9.273-6.182,19.264-11.164,28.007c-13.467,23.63-40.703,13.764-61.015,25.487
					c-20.66,11.925-33.732,36.187-29.703,60.142c2.447,14.545,10.336,29.98,3.612,43.107c-5.508,10.755-18.501,14.849-28.07,22.227
					c-21.036,16.219-18.565,42.673-12.966,65.597c4.044,16.556,13.384,32.942,24.616,45.752h367.464
					c10.915,0,20.223-7.991,21.778-18.794c2.029-14.1,3.395-30.062,2.744-40.796c-0.975-16.076-7.102-32.563-19.764-42.516
					c-4.695-3.69-9.875-6.67-14.819-9.999C434.785,288.835,431.651,285.447,427.795,283.205z"/>
				<path style="fill:#5E5ECC;" d="M448.437,404.632c8.238,0,13.803-8.411,10.578-15.992c-1.123-2.64-2.208-5.289-3.306-7.891
					c-5.613-13.309-13.657-27.404-27.458-31.666c-19.605-6.056-40.82,10.723-60.501,4.92c-11.331-3.341-19.146-13.321-27.636-21.536
					c-25.527-24.7-51.813-4.353-81.048-2.031c-18.381,1.46-37.434-7.64-49.337-21.843c-9.391-11.204-27.532-14.413-40.11-6.963
					c-11.621,6.883-19.463,18.566-27.505,29.448c-8.158,11.04-17.693,22.169-30.8,26.25c-16.535,5.148-35.535-2.003-51.3,5.165
					c-11.514,5.235-18.479,16.824-26.306,26.76c-0.049,0.062-0.098,0.124-0.147,0.186c-4.873,6.147-0.575,15.194,7.268,15.194
					H448.437z"/>
			</g>
			<g>
				<polygon style="fill:#FF5E6B;" points="310.006,203.868 307.919,201.781 305.137,204.564 302.354,201.781 300.267,203.868 
					303.049,206.651 300.267,209.434 302.354,211.521 305.137,208.738 307.919,211.521 310.006,209.434 307.224,206.651 				"/>
				<polygon style="fill:#B2AEFF;" points="170.891,355.66 168.804,353.573 166.021,356.356 163.238,353.573 161.151,355.66 
					163.934,358.443 161.151,361.226 163.238,363.313 166.021,360.53 168.804,363.313 170.891,361.226 168.108,358.443 				"/>
				<polygon style="fill:#FFCD08;" points="110.619,284.46 108.532,282.373 105.749,285.156 102.966,282.373 100.879,284.46 
					103.662,287.243 100.879,290.026 102.966,292.113 105.749,289.33 108.532,292.113 110.619,290.026 107.836,287.243 				"/>
				<polygon style="fill:#B2AEFF;" points="116.56,234.58 111.746,242.845 121.374,242.845 				"/>
				<polygon style="fill:#FFCD08;" points="227.004,110.341 218.74,105.527 218.74,115.156 				"/>
				<polygon style="fill:#FFCD08;" points="364.26,245.453 355.996,240.639 355.996,250.267 				"/>
				<path style="fill:#FFCD08;" d="M229.524,230.199c0,2.369-1.92,4.289-4.289,4.289c-2.369,0-4.289-1.92-4.289-4.289
					s1.92-4.289,4.289-4.289C227.604,225.91,229.524,227.831,229.524,230.199z"/>
				<path style="fill:#B2AEFF;" d="M184.18,161.725c0,2.268-1.838,4.106-4.106,4.106c-2.268,0-4.106-1.838-4.106-4.106
					c0-2.268,1.838-4.106,4.106-4.106C182.342,157.619,184.18,159.457,184.18,161.725z"/>
			</g>
		</g>
	</g>
</g>
<g id="OBJECTS">
	<g>
		<g>
			<g>
				<path style="fill:#F67159;" d="M400.13,388.35c-0.146,1.245-6.854,7.999-10.854,8.57c-4,0.571-11.995,7.999-11.995,7.999h-13.14
					c0,0,16.851-14.853,19.709-20.28c1.998-6.001-1.142-46.846-2.284-55.131c-0.494-3.585-1.042-8.557-1.503-13.044
					c-0.611-5.892-1.069-10.95-1.069-10.95s13.711-1.998,21.422-1.142c1.394,2.732,2.114,6.99,2.376,12.092
					c1.022,19.981-5.002,52.944-5.231,58.178C397.276,381.21,400.768,382.963,400.13,388.35z"/>
				<path style="fill:#D84554;" d="M402.792,316.464h-22.729c-0.611-5.892-1.069-10.95-1.069-10.95s13.711-1.998,21.422-1.142
					C401.81,307.103,402.53,311.362,402.792,316.464z"/>
				<path style="fill:#F39E23;" d="M362.894,404.939c-1.11-0.011-1.604-1.426-0.723-2.101c0.013-0.01,0.026-0.02,0.039-0.03
					c1.18-0.885,5.345-3.262,7.635-5.016c0.603-0.462,1.353-0.706,2.111-0.659c1.088,0.067,2.265,0.365,3.397,0.761
					c4.109,1.437,8.676,0.673,11.98-2.162c0.032-0.027,0.064-0.055,0.096-0.083c0.062-0.054,5.958-4.94,7.202-8.497
					c0.729-2.085,1.934-4.016,4.142-5.269c2.423,2.753,2.974,5.947,2.863,9.691c-0.11,3.744-0.771,14.427-0.771,14.427h-3.414
					l-1.211-12.224c0,0-6.3,5.048-10.462,7.929c-0.601,0.417-1.154,0.809-1.653,1.168c-2.016,1.456-4.442,2.231-6.929,2.206
					L362.894,404.939z"/>
			</g>
			<g>
				<path style="fill:#F68962;" d="M424.621,389.451c-0.146,1.245-6.854,7.999-10.854,8.57s-11.995,7.999-11.995,7.999h-13.141
					c0,0,16.851-14.853,19.709-20.28c1.998-6.001-1.142-46.847-2.284-55.131c-0.495-3.585-1.042-8.557-1.504-13.044
					c-0.611-5.891-1.069-10.95-1.069-10.95s13.711-1.998,21.422-1.142c1.394,2.732,2.114,6.99,2.377,12.092
					c1.022,19.981-5.002,52.944-5.231,58.178C421.767,382.311,425.259,384.064,424.621,389.451z"/>
				<path style="fill:#D84554;" d="M427.283,317.565h-22.73c-0.611-5.891-1.069-10.95-1.069-10.95s13.711-1.998,21.422-1.142
					C426.301,308.205,427.021,312.463,427.283,317.565z"/>
				<path style="fill:#FFCD08;" d="M387.385,406.041c-1.11-0.011-1.604-1.426-0.723-2.101c0.013-0.01,0.026-0.02,0.039-0.03
					c1.18-0.885,5.345-3.262,7.635-5.016c0.603-0.462,1.353-0.706,2.111-0.659c1.088,0.067,2.265,0.365,3.397,0.761
					c4.11,1.437,8.676,0.673,11.98-2.162c0.032-0.027,0.064-0.055,0.096-0.083c0.062-0.054,5.958-4.94,7.202-8.497
					c0.729-2.085,1.934-4.016,4.142-5.269c2.423,2.753,2.974,5.947,2.863,9.691c-0.11,3.744-0.771,12.062-0.771,12.062h-3.414
					l-1.211-9.86c0,0-6.3,5.048-10.462,7.929c-0.602,0.417-1.154,0.809-1.653,1.168c-2.016,1.456-4.442,2.231-6.929,2.206
					L387.385,406.041z"/>
			</g>
			<g>
				<path style="fill:#3E3F59;" d="M428.771,312.062h-31.25c-13.376,0-24.694,0-24.694,0s-7.674-38.947-7.04-57.328
					c0.211-6.12,1.766-12.391,3.323-16.463c1.633-4.272,2.927-6.967,2.927-6.967s31.406-13.363,49.246,0.219
					c0,0,1.822,2.486,3.774,6.711c2.058,4.461,4.255,10.86,4.594,18.325C430.311,271.094,427.228,306.997,428.771,312.062z"/>
				<path style="fill:#2E2D44;" d="M425.057,238.234c-13.386,0.033-45.642,0.103-55.948,0.036c1.633-4.272,2.927-6.967,2.927-6.967
					s31.406-13.363,49.246,0.219C421.283,231.523,423.105,234.009,425.057,238.234z"/>
				<path style="fill:#2E2D44;" d="M402.995,312.062h-5.473c-2.104-10.409-6.194-53.521-6.194-53.521
					c3.23,3.965,8.462,9.112,11.334,19.754C405.534,288.936,402.995,312.062,402.995,312.062z"/>
			</g>
			<g>
				<path style="fill:#3E3F59;" d="M362.141,148.229c1.177,3.825-3.362,6.89-1.502,10.609c2.496,4.992,7.439,1.846,9.985,6.461
					c2.349,4.258,0.44,9.838,9.104,10.719c6.653,0.677,14.222-3.58,24.962,0.881c9.544,3.965,15.124-1.615,14.243-6.314
					c-0.881-4.699-4.846-6.901-3.084-13.509c1.762-6.608,3.818-10.719-1.028-13.509c-4.846-2.79-12.041,0.294-16.886-5.286
					c-4.846-5.58-11.894-13.069-20.117-12.922c-8.496,0.152-14.978,3.524-16.005,12.188
					C361.326,141.653,361.587,146.43,362.141,148.229z"/>
				<path style="fill:#2E2D44;" d="M407.97,149.277c-0.234-0.26-0.492-0.496-0.77-0.701c-1.849-1.365-4.291-1.628-6.586-1.502
					c-3.306,0.182-8.903,0.15-11.048-3.067l-21.197-2.535c-0.557,3.438-1.114,6.876-1.671,10.314
					c-0.296,1.827-0.539,3.888,0.582,5.361c1.915,2.516,6.332,1.526,8.445,3.878c1.859,2.069,0.906,5.567,2.513,7.838
					c1.084,1.531,3.126,2.129,4.998,2.005s3.643-0.847,5.409-1.482c1.765-0.635,3.626-1.197,5.49-0.98
					c3.256,0.38,6.374,3.32,9.625,1.275c1.326-0.834,2.212-2.327,2.309-3.89c0.159-2.565-1.638-5.261-0.493-7.562
					c0.725-1.456,2.42-2.198,3.262-3.59C409.848,152.969,409.294,150.745,407.97,149.277z"/>
			</g>
			<g>
				<g>
					<path style="fill:#FF5E6B;" d="M368.273,214.416c-3.498,6.834-18.355,26.945-23.898,27.569
						c-2.426,2.333-4.122,3.834-4.441,3.927c-1.248,0.368-5.616-2.569-6.645-4.992c0,0-1.981-2.825-1.54-3.854
						c0.438-1.029,1.285-1.507,1.65-2.974c0.368-1.467-0.365-3.744,1.397-6.681c1.759-2.937,17.107-22.172,18.279-24.08
						c2.131-8.663,4.919-26.799,8.225-29.809c2.201-1.248,6.754-1.981,8.517,3.306C371.579,182.111,372.973,205.239,368.273,214.416
						z"/>
					<path style="fill:#FFFFFF;" d="M344.375,241.985c-2.426,2.333-4.122,3.834-4.441,3.927c-1.248,0.368-5.616-2.569-6.645-4.992
						c0,0-1.981-2.825-1.54-3.854c0.438-1.029,1.285-1.507,1.65-2.974c0,0,3.857-2.091,7.491,1.212
						C344.521,238.606,344.375,241.985,344.375,241.985z"/>
				</g>
				<g>
					<path style="fill:#F68962;" d="M341.109,255.089c-0.587-0.807-2.204-2.128-2.864-3.229c-0.603-1.005-0.613-3.231-1.821-5.287
						c1.03-1.254,2.477-3.028,3.859-4.771c-1.542-5.396-6.277-4.295-6.277-4.295s-2.872,3.138-4.735,5.163
						c-0.211-0.004-0.425-0.001-0.641,0.012c-3.598,0.219-7.783,2.35-10.648,6.094c-2.708,0.04-8.135,6.177-7.415,7.196
						c0.441,0.624,1.58,0.365,2.642-0.332c-0.053,0.524,0.704,0.694,1.583,0.568c0.352-0.05,0.724-0.146,1.069-0.286
						c0.119,0.073,0.259,0.139,0.431,0.196c1.616,0.514,3.306,0.073,5.287-1.467c1.982-1.543,3.525-4.773,6.681-5.214
						c3.157-0.441,4.919,0.661,5.948,2.204c1.026,1.54,1.54,4.109,4.109,4.478C340.89,256.487,341.697,255.899,341.109,255.089z"/>
					<g>
						<path style="fill:#D84554;" d="M317.981,248.776c0,0-1.812,2.463-2.665,3.674c-0.853,1.212-2.416,1.892-2.108,3.19
							c-1.062,0.697-2.201,0.956-2.642,0.332C309.846,254.953,315.273,248.816,317.981,248.776z"/>
						<path style="fill:#D84554;" d="M324.59,245.839c-1.394,0.734-1.138,2.645-4.185,5.361c-2.596,2.317-3.156,2.496-4.185,3.23
							c-1.056,0.757-0.358,1.494-0.358,1.494c-0.345,0.139-0.717,0.236-1.069,0.286c-1.049-2.655,2.065-3.309,4.292-5.118
							C322.791,248.076,323.086,246.463,324.59,245.839z"/>
					</g>
				</g>
			</g>
			<g>
				<path style="fill:#CD4353;" d="M421.283,231.523c0,0-17.824-0.113-33.331-0.176c-0.657-0.003-1.308-0.007-1.955-0.007
					c-5.321-0.023-10.259-0.037-13.96-0.037c-2.23-0.929-3.9-3.253-4.551-4.461c-0.302-0.561-0.166-1.122,0.471-1.952
					c3.668-4.796,4.63-11.192,2.118-16.682c-0.982-2.144-2.357-4.315-4.262-6.363c-4.086-4.391,0.186-10.223-1.58-14.87
					c-1.766-4.647-5.948-9.201-3.253-13.011c2.695-3.81,14.123-8.55,14.123-8.55l15.892-1.673c0,0,11.803,0.558,18.03,3.439
					c6.227,2.881,6.691,6.227,5.762,27.509c-0.929,21.279,5.009,28.19,6.867,29.955
					C423.514,226.412,421.283,231.523,421.283,231.523z"/>
				<path style="fill:#D84554;" d="M387.952,231.347c-0.657-0.003-1.308-0.007-1.955-0.007c-0.777-4.428-3.727-21.634-4.361-31.681
					c-0.733-11.6-0.209-28.336-0.209-28.336l1.225-0.106C382.652,171.217,381.092,202.593,387.952,231.347z"/>
			</g>
			<path style="fill:#00A376;" d="M382.652,171.217c-0.415-0.066-0.826-0.043-1.225,0.106c-0.292-1.869,0.063-3.824,0.063-3.824
				s0.365-0.292,1.026-0.219C382.33,167.799,382.502,169.83,382.652,171.217z"/>
			<g>
				<g>
					<path style="fill:#FF5E6B;" d="M364.786,211.846c0.33,0.22,20.154,11.894,34.69,4.515
						c10.192-5.173,19.052-44.382,11.233-47.135s-11.784,2.863-12.995,6.277c-1.211,3.414-6.498,26.1-6.498,26.1l-22.026,1.101
						L364.786,211.846z"/>
					<path style="fill:#FFFFFF;" d="M360.106,207.166c0,0-0.22,2.148,0.551,3.029c0.771,0.881,2.588,0.606,3.084,1.432
						c0.496,0.826,0.771,1.707,1.982,1.597c1.211-0.11,5.451-1.762,6.112-5.121c0.661-3.359-0.385-6.553-1.322-6.828
						s-1.817,0.385-2.974-0.551c-1.156-0.936-1.762-1.542-3.139-0.606C363.024,201.054,361.152,201.825,360.106,207.166z"/>
				</g>
				<g>
					<path style="fill:#F68962;" d="M355.426,198.704c0,0,11.885,3.24,12.389,4.442c1.156,2.753-0.275,5.947-2.808,6.167
						c-2.1,0.183-9.102-4.311-10.132-5.176C352.122,201.825,352.358,199.088,355.426,198.704z"/>
					<g>
						<path style="fill:#D84554;" d="M349.257,202.213c0,0-2.392,1.169-1.056,4.575c1.117,2.258,3.964,2.837,5.663,3.634
							c1.7,0.797,2.447-1.422,1.282-2.429C353.98,206.986,349.761,204.48,349.257,202.213z"/>
						<path style="fill:#F68962;" d="M360.822,201.331c0.038,1.49-0.598,3-2.219,3.334c0.707,0.701,0.511,2.089-0.205,2.752
							c-0.712,0.658-1.518,1.451-2.521,0.61c-0.008-0.006-0.017-0.014-0.025-0.02c-0.356,0.081-0.669,0.168-0.981,0.197
							c-0.174,0.021-0.347,0.022-0.525-0.006c-0.341-0.052-0.704-0.2-1.139-0.52c-0.005-0.004-0.012-0.007-0.016-0.011
							c-0.374,0.097-0.684,0.092-0.94,0.031c-0.698-0.161-0.983-0.746-1.032-0.856l-0.007-0.018c0,0-0.543,0.181-1.214-0.232
							c-0.213-0.131-0.438-0.322-0.662-0.602c-0.928-1.152-1.404-3.399-1.404-3.399s-0.527,0.26-1.279,0.613
							c-1.405,0.66-3.602,1.645-4.629,1.851c-1.58,0.317-2.418-0.724-2.302-1.304c0.116-0.581,2.49-1.491,4.858-2.549
							c2.367-1.055,5.497-2.739,7.308-3.002C354.471,197.824,360.782,199.836,360.822,201.331z"/>
						<path style="fill:#D84554;" d="M347.918,202.61c0,0-0.525,0.265-1.275,0.624c0.265-1.265,0.842-2.544,2.087-2.697
							C348.825,200.523,347.843,201.175,347.918,202.61z"/>
						<path style="fill:#D84554;" d="M351.228,206.822c-0.003,0.007-0.007,0.012-0.01,0.019l-0.007-0.018
							c0,0-0.543,0.181-1.214-0.232c-0.319-1.286-0.627-3.067-0.294-4.323C349.703,202.268,350.15,204.403,351.228,206.822z"/>
						<path style="fill:#D84554;" d="M353.211,207.652c-0.002,0.01-0.004,0.019-0.005,0.025c-0.005-0.004-0.012-0.007-0.016-0.011
							c-0.374,0.097-0.684,0.092-0.94,0.031c-0.281-1.33-0.487-3.145-0.079-4.772C352.224,202.714,352.044,204.924,353.211,207.652z
							"/>
						<path style="fill:#D84554;" d="M355.874,207.974c0.001,0.017,0.002,0.035,0.003,0.052c-0.008-0.006-0.017-0.014-0.025-0.02
							c-0.356,0.081-0.669,0.168-0.981,0.197c-0.356-1.283-0.939-3.038-0.545-4.53C354.286,203.941,354.557,205.613,355.874,207.974
							z"/>
						<path style="fill:#D84554;" d="M358.602,204.663c0,0-1.586,1.497-1.912,1.495c-0.326-0.002-0.492-2.083-0.222-2.058
							c0.065,0.006,0.148,0.039,0.237,0.085C357.288,204.49,357.943,204.636,358.602,204.663L358.602,204.663z"/>
					</g>
				</g>
			</g>
			<g>
				<path style="fill:#FFCD08;" d="M381.196,174.733c0,0-2.258,15.032-1.652,19.107c-1.432-1.982-2.258-4.295-2.258-4.295
					s-3.579,3.414-3.579,3.249c0-0.165,1.321-5.48,3.524-11.784c1.982-5.672,3.579-7.819,3.579-7.819L381.196,174.733z"/>
				<path style="fill:#FFCD08;" d="M382.395,174.282c0,0,2.258,15.033,1.652,19.107c1.432-1.982,2.258-4.295,2.258-4.295
					s3.579,3.414,3.579,3.249c0-0.165-1.321-5.48-3.524-11.784c-1.982-5.672-3.579-7.819-3.579-7.819L382.395,174.282z"/>
				<g>
					<path style="fill:#FFCD08;" d="M381.417,174.019c-0.66,1.484-6.774,12.994-8.261,12.828s-1.577-2.367-2.128-4.404
						c-0.11-0.269-0.339-0.601-0.568-0.979c-0.471-0.78-0.943-1.766-0.388-2.874c0.827-1.653,9.251-4.959,9.251-4.959
						S382.077,172.532,381.417,174.019z"/>
					<path style="fill:#F39E23;" d="M380.718,174.44c0.22-0.336-8.988,9.775-8.232,11.004
						C373.243,186.673,375.329,182.666,380.718,174.44z"/>
					<path style="fill:#F39E23;" d="M376.425,177.338c-3.598,2.35-5.397,5.105-5.397,5.105c-0.11-0.269-0.339-0.601-0.568-0.979
						C371.612,179.575,373.647,178.599,376.425,177.338z"/>
				</g>
				<g>
					<path style="fill:#FFCD08;" d="M382.992,172.991c0.661,1.484,6.774,12.995,8.261,12.829c1.487-0.166,1.577-2.367,2.128-4.405
						c0.109-0.269,0.339-0.601,0.568-0.979c0.471-0.78,0.943-1.766,0.388-2.874c-0.826-1.653-9.25-4.959-9.25-4.959
						S382.332,171.504,382.992,172.991z"/>
					<path style="fill:#F39E23;" d="M383.691,173.412c-0.22-0.335,8.988,9.775,8.232,11.004
						C391.166,185.645,389.08,181.638,383.691,173.412z"/>
					<path style="fill:#F39E23;" d="M387.984,176.31c3.598,2.35,5.397,5.105,5.397,5.105c0.109-0.269,0.339-0.601,0.568-0.979
						C392.797,178.547,390.762,177.572,387.984,176.31z"/>
				</g>
				<path style="fill:#F39E23;" d="M379.14,172.164c0,0-0.514,3.891,2.203,3.818s4.001-2.056,3.01-4.515
					C383.361,169.007,379.764,169.374,379.14,172.164z"/>
			</g>
			<g>
				<path style="fill:#FFFFFF;" d="M395.55,165.227c-0.186,0.624-4.627,9.433-6.24,9.874c-1.314,0.358-4.102-3.475-6.658-3.883
					c-0.415-0.066-0.826-0.043-1.225,0.106c-0.166,0.063-0.329,0.146-0.488,0.252c-0.186,0.126-2.642,2.755-3.525,3.634
					c-0.88,0.88-1.102,1.175-2.387,0.919c-1.285-0.259-1.763-5.141-2.201-7.086c-0.441-1.945-0.624-3.339,0.219-4.478
					c0.285-0.388,0.962-1.102,1.427-1.673c0.07-0.083,0.133-0.159,0.189-0.236c0.883-1.172,1.739-2.333,3.163-2.682
					c3.396-0.827,9.682-2.267,11.371-2.055c0.876,0.109,1.693,0.478,2.43,1.002c1.248,0.883,2.26,2.207,2.931,3.475
					C395.623,164.417,395.732,164.602,395.55,165.227z"/>
				<path style="fill:#F9EFCD;" d="M391.627,158.923c-0.282,1.042-0.74,1.898-0.74,1.898s-5.802,6.605-15.308,3.558
					c0,0-0.544-0.598-1.105-1.487c0.07-0.083,0.133-0.159,0.189-0.236c0.883-1.172,1.739-2.333,3.163-2.682
					c3.396-0.827,9.682-2.267,11.371-2.055C390.073,158.031,390.89,158.399,391.627,158.923z"/>
				<g>
					<path style="fill:#F67159;" d="M362.703,141.131c-1.426-0.172-2.642,1.505-2.56,3.877c0.082,2.372,2.34,5.537,3.767,5.697
						c1.427,0.16,2.205-0.033,2.676-0.898C367.057,148.943,365.282,141.442,362.703,141.131z"/>
					<path style="fill:#D84554;" d="M361.7,144.852c0.005-0.147-0.191-1.88,0.811-2.176c1.002-0.295,2.035,2.716,2.336,3.572
						c-1.049-0.478-1.592,0.348-1.65,0.971c-0.058,0.622,0.988,2.202,2.346,1.184c0.193,0.778,0.193,0.778,0.193,0.778
						s-1.861,0.706-2.91-0.8c-1.049-1.506,0.353-2.742,1.088-2.753c-0.337-0.857-0.889-1.868-1.22-1.879
						C362.24,143.732,361.7,144.852,361.7,144.852z"/>
				</g>
				<g>
					<path style="fill:#F68962;" d="M390.887,160.82c-1.247,4.073-6.496,7.967-9.911,7.636c-3.415-0.332-5.397-4.076-5.397-4.076
						s2.313-1.212,1.872-3.303c-0.053-0.249-0.143-0.534-0.262-0.846c-0.87-2.303-3.263-5.981-3.263-5.981l10.794-7.488
						c0,0,0.04,3.718,1.494,7.488C387.199,156.809,388.172,159.353,390.887,160.82z"/>
					<path style="fill:#D84554;" d="M386.213,154.25c-0.783,1.421-1.875,2.977-3.256,3.963c-1.739,1.241-4.036,1.786-5.769,2.018
						c-0.87-2.303-3.263-5.981-3.263-5.981l10.794-7.488C384.719,146.762,384.759,150.48,386.213,154.25z"/>
				</g>
				<path style="fill:#F68962;" d="M368.242,137.778c-2.416,0.424-4.032,2.736-3.648,5.158c0.717,4.523,2.358,12.538,5.148,14.066
					c3.084,1.689,11.453-0.661,14.096-4.332c2.643-3.671,2.496-11.527,2.496-11.527s-5.066-1.689-6.02-7.929
					C375.963,137.228,371.547,137.197,368.242,137.778z"/>
				<g>
					<path style="fill:#F68962;" d="M389.207,139.557c1.431-0.122,2.588,1.597,2.423,3.965s-2.533,5.451-3.965,5.561
						c-1.432,0.11-2.203-0.11-2.643-0.991C384.582,147.21,386.619,139.777,389.207,139.557z"/>
					<path style="fill:#D84554;" d="M390.079,143.31c0-0.147,0.257-1.872-0.734-2.202c-0.991-0.33-2.129,2.643-2.46,3.487
						c1.065-0.441,1.578,0.404,1.615,1.028c0.037,0.624-1.065,2.166-2.386,1.101c-0.22,0.771-0.22,0.771-0.22,0.771
						s1.836,0.771,2.937-0.698c1.101-1.468-0.257-2.753-0.991-2.79c0.367-0.844,0.954-1.836,1.285-1.836
						C389.579,142.172,390.079,143.31,390.079,143.31z"/>
				</g>
				<path style="fill:#D84554;" d="M371.843,141.9c-0.296-0.043-0.614,6.239-0.325,6.46c0.289,0.221,3.102,0.208,2.929-0.154
					c-0.173-0.362-1.742-0.242-2.081-0.558C372.026,147.333,372.139,141.943,371.843,141.9z"/>
				<path style="fill:#D84554;" d="M370.677,151.638c0,0,1.211,1.266,3.524,1.101c2.313-0.165,3.469-3.249,3.469-3.249
					S374.972,152.024,370.677,151.638z"/>
				<g>
					<path style="fill:#002734;" d="M376.727,143.044c-0.715-0.311-1.597,0.142-1.733,0.915c-0.089,0.507,0.161,0.998,0.569,1.249
						c0.486,0.363,1.294,0.222,1.661-0.286C377.679,144.295,377.446,143.357,376.727,143.044z"/>
					<path style="fill:#664341;" d="M374.438,141.607c0,0,1.25-0.5,2.12-0.36c0.87,0.139,2.092,0.743,2.092,0.743
						s-0.557-1.741-1.949-1.915C375.308,139.901,374.438,141.607,374.438,141.607z"/>
				</g>
				<g>
					<path style="fill:#002734;" d="M369.404,143.044c-0.715-0.311-1.597,0.142-1.733,0.915c-0.089,0.507,0.161,0.998,0.569,1.249
						c0.486,0.363,1.294,0.222,1.661-0.286C370.355,144.295,370.122,143.357,369.404,143.044z"/>
					<path style="fill:#664341;" d="M366.454,141.772c0,0,1.25-0.5,2.12-0.36c0.87,0.139,2.092,0.743,2.092,0.743
						s-0.557-1.741-1.95-1.915C367.324,140.066,366.454,141.772,366.454,141.772z"/>
				</g>
			</g>
		</g>
		<g>
			<g>
				<g>
					<path style="fill:#80B230;" d="M39.939,333.141c0.771,4.327-0.946,9.528,2.083,12.711c2.089,2.196,5.736,2.441,7.611,4.821
						c2.014,2.553,1.077,6.21,0.925,9.457c-0.229,4.824,1.759,9.62,5.063,13.099c1.664,1.756,5.022,5.37,7.911,5.491
						c0.707,0.031,1.388-0.149,2.008-0.615c0.202-0.15,0.392-0.31,0.577-0.474c5.289-4.719,4.403-15.125,1.302-20.585
						c-2.11-3.713-5.569-7.031-5.642-11.302c-0.056-3.398,2.128-6.65,1.576-10.005c-0.751-4.531-5.892-6.78-8.464-10.583
						c-3.561-5.27-1.728-12.75-4.902-18.26c-2.651-4.599-8.859-6.771-13.797-4.825c-4.942,1.944-8.002,7.765-6.802,12.936
						C30.985,321.894,38.695,326.184,39.939,333.141z"/>
					<path style="fill:#6B9117;" d="M63.534,378.719c0.707,0.031,1.388-0.149,2.008-0.615c0.202-0.15,0.392-0.31,0.577-0.474
						c-0.42-1.35-0.888-2.689-1.271-3.993c-0.927-3.155-1.863-6.306-2.86-9.44c-1.96-6.161-4.096-12.272-6.333-18.339
						s-4.606-12.091-7.093-18.061c-1.229-2.952-2.495-5.889-3.81-8.807c-1.323-2.936-2.484-6.181-4.301-8.85
						c-0.731-1.072-2.482-0.372-2.119,0.926c0.87,3.109,2.541,6.099,3.82,9.059c1.302,3.019,2.594,6.042,3.863,9.078
						c2.451,5.867,4.78,11.788,6.996,17.746c2.215,5.966,4.287,11.976,6.287,18.012c1.036,3.123,2.065,6.249,3.038,9.393
						C62.768,375.758,63.127,377.246,63.534,378.719z"/>
				</g>
				<g>
					<path style="fill:#8BC53F;" d="M80.732,328.338c0.853,4.312,4.341,8.534,2.675,12.6c-1.148,2.805-4.457,4.358-5.34,7.256
						c-0.949,3.11,1.251,6.177,2.572,9.148c1.965,4.411,1.855,9.602,0.04,14.043c-0.913,2.24-2.728,6.827-5.377,7.989
						c-0.647,0.285-1.348,0.365-2.094,0.156c-0.242-0.066-0.478-0.146-0.71-0.232c-6.642-2.476-9.596-12.493-8.69-18.707
						c0.617-4.225,2.635-8.573,1.152-12.58c-1.182-3.186-4.398-5.423-5.102-8.749c-0.946-4.494,3.027-8.457,4.043-12.935
						c1.404-6.203-3.02-12.507-2.065-18.793c0.8-5.247,5.795-9.526,11.103-9.506c5.311,0.017,10.276,4.328,11.036,9.582
						C84.99,314.606,79.364,321.404,80.732,328.338z"/>
					<path style="fill:#80B230;" d="M75.301,379.373c-0.647,0.285-1.348,0.365-2.094,0.156c-0.242-0.066-0.478-0.146-0.71-0.232
						c-0.1-1.411-0.149-2.828-0.266-4.182c-0.282-3.276-0.554-6.552-0.763-9.835c-0.412-6.452-0.641-12.921-0.76-19.387
						c-0.119-6.466-0.1-12.938,0.05-19.404c0.073-3.196,0.186-6.393,0.352-9.589c0.166-3.216,0.07-6.661,0.793-9.808
						c0.292-1.265,2.177-1.248,2.31,0.093c0.319,3.213-0.153,6.605-0.269,9.828c-0.116,3.286-0.222,6.572-0.302,9.861
						c-0.153,6.356-0.173,12.719-0.073,19.075c0.103,6.363,0.355,12.716,0.684,19.065c0.169,3.286,0.345,6.572,0.581,9.855
						C74.94,376.336,75.146,377.853,75.301,379.373z"/>
				</g>
				<g>
					<path style="fill:#80B230;" d="M106.4,333.141c-0.771,4.327,0.946,9.528-2.083,12.711c-2.089,2.196-5.736,2.441-7.611,4.821
						c-2.014,2.553-1.077,6.21-0.925,9.457c0.229,4.824-1.759,9.62-5.063,13.099c-1.664,1.756-5.022,5.37-7.911,5.491
						c-0.707,0.031-1.388-0.149-2.008-0.615c-0.202-0.15-0.392-0.31-0.577-0.474c-5.289-4.719-4.403-15.125-1.302-20.585
						c2.11-3.713,5.569-7.031,5.642-11.302c0.056-3.398-2.128-6.65-1.576-10.005c0.751-4.531,5.892-6.78,8.464-10.583
						c3.561-5.27,1.728-12.75,4.902-18.26c2.651-4.599,8.859-6.771,13.797-4.825c4.942,1.944,8.003,7.765,6.802,12.936
						C115.355,321.894,107.644,326.184,106.4,333.141z"/>
					<path style="fill:#6B9117;" d="M82.806,378.719c-0.707,0.031-1.388-0.149-2.008-0.615c-0.202-0.15-0.392-0.31-0.577-0.474
						c0.419-1.35,0.888-2.689,1.271-3.993c0.927-3.155,1.863-6.306,2.86-9.44c1.96-6.161,4.096-12.272,6.333-18.339
						s4.606-12.091,7.093-18.061c1.229-2.952,2.495-5.889,3.81-8.807c1.323-2.936,2.484-6.181,4.301-8.85
						c0.731-1.072,2.482-0.372,2.119,0.926c-0.87,3.109-2.541,6.099-3.82,9.059c-1.302,3.019-2.594,6.042-3.863,9.078
						c-2.451,5.867-4.78,11.788-6.996,17.746c-2.215,5.966-4.287,11.976-6.287,18.012c-1.036,3.123-2.065,6.249-3.038,9.393
						C83.572,375.758,83.213,377.246,82.806,378.719z"/>
				</g>
				<path style="fill:#3E3F59;" d="M49.626,373.829c0,0,0.661,20.704,6.167,24.448c8.392,0,27.951,0,36.342,0
					c5.506-3.744,6.167-24.448,6.167-24.448H49.626z"/>
				<path style="fill:#F9EFCD;" d="M47.975,394.725l1.432,4.5c1.105,3.472,4.785,5.88,8.985,5.88h31.147
					c4.2,0,7.88-2.408,8.985-5.88l1.432-4.5H47.975z"/>
			</g>
			<path style="fill:#3E3F59;" d="M145.704,346.958H78.085v4.846h3.331c0.942,7.612,2.714,15.197,4.158,22.722
				c0.759,3.952,1.499,7.908,2.206,11.869c0.344,1.927,0.673,3.856,1.015,5.783c0.242,1.362,0.422,2.792,0.743,4.166v8.762h44.932
				v-8.586c0.193-0.821,0.35-1.647,0.507-2.423c0.415-2.046,0.893-4.078,1.319-6.121c0.875-4.191,1.72-8.392,2.507-12.6
				l2.302-12.302c0.69-3.69,1.641-7.497,1.827-11.27h2.772V346.958z M133.649,356.72c1.4,1.715,2.745,3.467,4.046,5.255
				c-0.888,0.856-1.681,1.82-2.499,2.738c-0.017,0.019-0.034,0.038-0.051,0.058c-1.774-2.02-3.689-3.941-5.527-5.818
				c0.573-0.669,1.147-1.338,1.718-2.009c0.396-0.465,0.84-0.94,1.294-1.426C132.979,355.92,133.323,356.32,133.649,356.72z
				 M137.595,367.784c-0.294-0.396-0.596-0.788-0.906-1.175c0.035-0.04,0.07-0.08,0.105-0.12c0.437-0.493,0.889-0.979,1.332-1.472
				C137.95,365.939,137.773,366.861,137.595,367.784z M134.755,382.918c-0.184-0.193-0.372-0.382-0.56-0.571
				c0.264-0.312,0.543-0.622,0.827-0.933C134.932,381.914,134.844,382.416,134.755,382.918z M91.785,394.533
				c-0.195-1.771-0.543-3.56-0.886-5.315c1.13,1.058,2.379,2.013,3.541,2.966c0.387,0.318,0.778,0.65,1.173,0.988
				c-0.364,0.44-0.702,0.892-1.009,1.36H91.785z M129.812,351.803c0.387,0.684,0.851,1.335,1.349,1.964
				c-0.492,0.627-0.969,1.247-1.447,1.799c-0.536,0.619-1.078,1.232-1.616,1.849c-1.336-1.328-2.707-2.623-4.127-3.859
				c-0.62-0.54-1.28-1.166-1.98-1.753H129.812z M135.704,377.671c-1.101,0.896-1.992,2.119-2.903,3.175
				c-0.023,0.026-0.045,0.053-0.067,0.079c-1.559-1.46-3.192-2.851-4.812-4.244c1.016-1.181,2.034-2.361,3.055-3.538
				c0.563,0.546,1.125,1.092,1.688,1.637c0.92,0.893,1.924,2.003,3.082,2.663C135.733,377.52,135.718,377.595,135.704,377.671z
				 M127.537,387.259c-1.623-1.474-3.258-2.937-4.898-4.393c0.947-1.115,1.894-2.231,2.844-3.344
				c0.25-0.293,0.502-0.584,0.752-0.876c1.607,1.416,3.222,2.838,4.899,4.169c-0.716,0.857-1.426,1.719-2.125,2.59
				C128.519,386.016,128.026,386.635,127.537,387.259z M122.902,393.984c-0.741-0.7-1.572-1.337-2.263-1.975
				c-1.071-0.989-2.162-1.957-3.257-2.921c0.153-0.181,0.308-0.361,0.46-0.543c0.959-1.145,1.923-2.285,2.887-3.425
				c1.681,1.487,3.368,2.968,5.065,4.434C124.75,390.986,123.766,392.459,122.902,393.984z M115.732,387.638
				c-2.199-1.924-4.395-3.852-6.596-5.774c1.2-1.286,2.394-2.579,3.584-3.875c2.11,1.884,4.22,3.771,6.337,5.651
				c-0.883,1.09-1.767,2.179-2.641,3.276c-0.207,0.259-0.408,0.523-0.613,0.784C115.779,387.679,115.755,387.658,115.732,387.638z
				 M95.757,390.632c-1.251-1.012-2.527-2.123-3.896-3.061c0.896-1.084,1.752-2.203,2.586-3.339c1.05,0.959,2.112,1.905,3.175,2.85
				c0.669,0.594,1.345,1.181,2.023,1.765c-0.141,0.153-0.283,0.304-0.423,0.457c-0.704,0.77-1.469,1.531-2.213,2.313
				C96.583,391.287,96.162,390.96,95.757,390.632z M99.122,385.315c-1.126-0.959-2.242-1.929-3.359-2.899
				c0.917-1.28,1.827-2.565,2.763-3.826c0.378-0.51,0.76-1.017,1.141-1.525c1.412,1.23,2.826,2.459,4.235,3.693
				c0.597,0.523,1.201,1.04,1.801,1.561c-0.418,0.451-0.833,0.904-1.251,1.355c-1.068,1.151-2.141,2.299-3.211,3.449
				C100.535,386.521,99.829,385.918,99.122,385.315z M97.001,351.972c1.525,1.833,3.338,3.499,5.13,5.105
				c-1.25,1.433-2.473,2.884-3.673,4.357c-1.793-1.569-3.6-3.121-5.428-4.644c0.998-1.239,1.996-2.478,2.993-3.716
				C96.32,352.708,96.681,352.349,97.001,351.972z M113.757,356.693c-0.591,0.661-1.18,1.324-1.764,1.99
				c-0.649,0.741-1.295,1.484-1.937,2.23c-1.352-1.199-2.705-2.397-4.053-3.6c-0.271-0.242-0.543-0.489-0.815-0.738
				c1.274-1.499,2.604-2.961,3.831-4.493C110.468,353.732,112.183,355.225,113.757,356.693z M120.041,352.86
				c0.806,0.862,1.721,1.656,2.468,2.419c1.313,1.34,2.641,2.665,3.963,3.995c-0.607,0.693-1.21,1.389-1.819,2.081
				c-0.337,0.383-0.677,0.764-1.014,1.146c-0.006-0.006-0.013-0.012-0.019-0.018c-2.229-2.127-4.492-4.215-6.779-6.28
				c0.11-0.12,0.218-0.241,0.328-0.361C118.037,354.896,119.184,353.932,120.041,352.86z M121.729,364.224
				c0.07,0.066,0.139,0.133,0.209,0.2c-1.161,1.311-2.324,2.619-3.491,3.924c-0.821-0.725-1.644-1.447-2.462-2.175
				c-1.488-1.323-2.978-2.643-4.469-3.963c0.584-0.681,1.171-1.36,1.763-2.034c0.63-0.717,1.264-1.43,1.901-2.141
				C117.363,360.098,119.549,362.158,121.729,364.224z M113.007,374.372c-1.242-1.095-2.483-2.191-3.719-3.291
				c-0.981-0.873-1.961-1.75-2.942-2.629c1.163-1.448,2.34-2.885,3.533-4.308c1.472,1.34,2.947,2.676,4.433,4.001
				c0.799,0.712,1.598,1.424,2.398,2.136c-0.692,0.769-1.379,1.542-2.075,2.308C114.094,373.185,113.549,373.777,113.007,374.372z
				 M116.33,374.028c0.682-0.755,1.358-1.516,2.039-2.273c1.975,1.752,3.956,3.496,5.955,5.22c0.046,0.039,0.091,0.079,0.137,0.119
				c-0.255,0.304-0.514,0.604-0.769,0.909c-0.929,1.109-1.846,2.227-2.764,3.345c-2.079-1.838-4.164-3.67-6.248-5.502
				C115.23,375.239,115.781,374.635,116.33,374.028z M125.994,375.005c-1.958-1.735-3.922-3.462-5.886-5.19
				c1.147-1.284,2.286-2.575,3.425-3.866c1.84,1.761,3.671,3.53,5.497,5.306c0.076,0.074,0.152,0.147,0.227,0.221
				c-1.049,1.211-2.092,2.427-3.129,3.648C126.084,375.083,126.038,375.044,125.994,375.005z M104.438,359.158
				c1.327,1.224,2.658,2.444,3.991,3.663c-1.204,1.421-2.394,2.855-3.569,4.3c-1.583-1.418-3.17-2.838-4.766-4.248
				c1.186-1.477,2.373-2.953,3.559-4.43C103.918,358.682,104.18,358.92,104.438,359.158z M103.019,369.412
				c-1.123,1.414-2.228,2.841-3.316,4.281c-1.356-1.168-2.714-2.333-4.083-3.485c-0.269-0.226-0.538-0.451-0.806-0.677
				c1.133-1.451,2.273-2.896,3.421-4.335C99.825,366.61,101.423,368.013,103.019,369.412z M93.777,371.872
				c1.451,1.305,2.918,2.595,4.388,3.88c-0.383,0.519-0.767,1.037-1.146,1.56c-0.915,1.265-1.84,2.536-2.738,3.826
				c-0.478-0.413-0.953-0.828-1.434-1.237c-1.281-1.09-2.569-2.309-3.966-3.325c1.028-0.42,1.583-1.479,2.264-2.343
				c0.727-0.923,1.446-1.852,2.167-2.78C93.466,371.593,93.621,371.733,93.777,371.872z M105.585,378.776
				c-1.456-1.253-2.907-2.512-4.361-3.769c1.09-1.432,2.192-2.856,3.305-4.27c0.967,0.848,1.932,1.695,2.893,2.543
				c1.214,1.071,2.425,2.148,3.635,3.226c-1.195,1.304-2.392,2.606-3.591,3.906C106.839,379.867,106.215,379.318,105.585,378.776z
				 M131.384,369.022c-0.158,0.18-0.313,0.362-0.47,0.542c-1.872-1.87-3.774-3.712-5.685-5.544c0.365-0.417,0.734-0.83,1.098-1.248
				c0.562-0.646,1.12-1.294,1.678-1.943c1.846,1.907,3.617,3.915,5.435,5.868C132.754,367.472,132.066,368.244,131.384,369.022z
				 M116.086,354.119c-0.233,0.254-0.462,0.511-0.694,0.765c-1.125-1.027-2.284-2.098-3.498-3.081h6.252
				C117.414,352.541,116.757,353.386,116.086,354.119z M103.727,355.228c-1.263-1.169-2.55-2.349-3.897-3.425h6.851
				C105.67,352.918,104.701,354.082,103.727,355.228z M94.748,351.993l-3.019,3.723c-1.627-1.334-3.273-2.641-4.941-3.913h8.108
				C94.847,351.868,94.798,351.931,94.748,351.993z M96.612,363.748c-1.155,1.463-2.29,2.94-3.411,4.429
				c-0.873-0.729-1.751-1.454-2.637-2.166c-1.031-0.828-2.058-1.751-3.219-2.4c1.488-1.349,2.778-3.049,4.017-4.679
				C93.089,360.558,94.843,362.161,96.612,363.748z M88.913,367.448c0.944,0.886,1.903,1.757,2.865,2.625
				c-0.837,1.136-1.653,2.283-2.454,3.445c-0.335,0.486-0.677,0.906-0.925,1.364c-0.055-0.311-0.107-0.623-0.163-0.934
				c-0.51-2.875-1.008-5.779-1.548-8.682C87.368,366.047,88.164,366.746,88.913,367.448z M91.511,381.475
				c0.51,0.496,1.025,0.985,1.544,1.471c-0.836,1.27-1.628,2.566-2.345,3.9c-0.097-0.056-0.193-0.112-0.291-0.165
				c-0.031-0.177-0.062-0.353-0.091-0.529c-0.387-2.325-0.781-4.648-1.18-6.97C89.93,379.976,90.747,380.732,91.511,381.475z
				 M97.067,394.408c0.05,0.042,0.101,0.083,0.151,0.125H96.93C96.976,394.493,97.021,394.449,97.067,394.408z M100.521,394.533
				c-0.598-0.577-1.241-1.123-1.897-1.651c0.731-0.763,1.44-1.544,2.152-2.26c0.145-0.146,0.286-0.296,0.431-0.442
				c0.904,0.765,1.812,1.525,2.724,2.281c0.842,0.699,1.692,1.387,2.546,2.072H100.521z M109.982,394.533
				c-0.468-0.512-1.041-0.939-1.601-1.403c-0.981-0.815-1.959-1.634-2.938-2.451c-0.868-0.723-1.729-1.454-2.59-2.186
				c1.092-1.131,2.178-2.269,3.26-3.41c0.418-0.441,0.832-0.884,1.249-1.327c2.161,1.866,4.327,3.727,6.49,5.59
				c0.134,0.116,0.269,0.23,0.403,0.346c-0.454,0.592-0.907,1.185-1.358,1.78c-0.747,0.984-1.615,1.985-2.306,3.061H109.982z
				 M114.115,392.925c0.549-0.646,1.101-1.289,1.652-1.933c1.024,0.877,2.053,1.75,3.094,2.606c0.352,0.289,0.709,0.609,1.073,0.936
				h-7.144C113.24,393.995,113.673,393.444,114.115,392.925z M127.42,390.945c1.411,1.207,2.829,2.405,4.259,3.588h-7.11
				C125.552,393.369,126.493,392.163,127.42,390.945z M133.998,387.236c-0.302,1.738-0.561,3.483-0.852,5.224
				c-1.333-1.263-2.679-2.513-4.033-3.755c0.557-0.736,1.117-1.469,1.686-2.191c0.65-0.824,1.309-1.639,1.974-2.451
				c0.521,0.38,1.048,0.749,1.586,1.103C134.239,385.855,134.118,386.546,133.998,387.236z M136.223,374.92
				c-0.007,0.038-0.014,0.076-0.021,0.114c-0.419-0.497-0.879-0.965-1.305-1.42c-0.746-0.798-1.514-1.579-2.286-2.354
				c0.13-0.149,0.259-0.3,0.389-0.449c0.693-0.796,1.393-1.587,2.09-2.38c0.654,0.669,1.323,1.32,2.005,1.955
				C136.804,371.898,136.513,373.409,136.223,374.92z M132.591,352.034c-0.088-0.078-0.177-0.155-0.267-0.231h0.48
				C132.733,351.88,132.662,351.956,132.591,352.034z M84.178,351.803c1.907,2.013,3.876,3.975,5.889,5.9
				c-1.377,1.602-2.825,3.272-3.855,5.072c-0.727-3.7-1.55-7.379-2.585-10.972H84.178z M139.111,359.771
				c-1.136-1.622-2.343-3.199-3.645-4.687c-0.393-0.45-0.798-0.918-1.217-1.381c0.501-0.612,0.954-1.244,1.299-1.9h5.349
				C140.067,354.372,139.585,357.093,139.111,359.771z"/>
		</g>
		<g>
			<g>
				<rect x="189.714" y="291.122" style="fill:#F9EFCD;" width="5.128" height="110.12"/>
				<rect x="134.35" y="382.884" style="fill:#F9EFCD;" width="60.491" height="5.128"/>
			</g>
			<g>
				<g>
					<path style="fill:#2E2D44;" d="M292.107,321.8h-34.218c-8.74,0-15.824-7.085-15.824-15.824v-61.183
						c0-8.739,7.085-15.824,15.824-15.824h34.218c8.739,0,15.824,7.085,15.824,15.824v61.183
						C307.931,314.715,300.846,321.8,292.107,321.8z"/>
					<g>
						<rect x="256.825" y="335.933" style="fill:#2E2D44;" width="5.516" height="41.087"/>
						<path style="fill:#2E2D44;" d="M230.091,402.711h-16.287l5.952-5.208l37.617-2.067l39.766,2.563l3.968,4.464
							C301.107,402.462,230.793,403.413,230.091,402.711z"/>
						<rect x="259.392" y="335.933" style="fill:#4F5068;" width="2.949" height="41.087"/>
						<path style="fill:#2E2D44;" d="M264.431,402.655h-10.478v-34.398c0-1.153,0.935-2.088,2.088-2.088h6.301
							c1.153,0,2.088,0.935,2.088,2.088V402.655z"/>
						<g>
							<path style="fill:#2E2D44;" d="M230.547,343.109c0.686,0,54.224,0,57.655,0c3.432,0,6.177-0.998,6.635-6.986
								c-12.126,0-72.298,0-72.298,0S222.539,343.109,230.547,343.109z"/>
							<path style="fill:#3E3F59;" d="M298.007,333.265v4.216h-78.375v-4.216C219.632,333.265,297.759,333.265,298.007,333.265z"/>
							<path style="fill:#2E2D44;" d="M228.313,326.32c0.744,0,58.781,0,62.501,0c3.72,0,6.697,0.992,7.193,6.945
								c-13.145,0-78.375,0-78.375,0S219.632,326.32,228.313,326.32z"/>
						</g>
					</g>
				</g>
				<g>
					<g>
						<g>
							<path style="fill:#2E2D44;" d="M228.753,299.106c0,0-4.258,8.37-4.405,8.81c-0.147,0.44-31.57,2.79-39.059,8.37
								c-5.286,9.544-6.608,16.886-5.58,19.383c1.028,2.496,13.215,51.099,13.656,52.127c0.44,1.028-0.294,8.517-0.294,8.517
								s31.57,9.691,31.717,8.957c0.147-0.734-1.762-8.957-2.79-14.977c-1.028-6.02-18.502-56.826-17.914-57.267
								c0.587-0.44,31.717-2.79,38.765-4.552c7.048-1.762,13.509-29.514,13.509-29.514L228.753,299.106z"/>
							<path style="fill:#2E2D44;" d="M224.788,405.27h-48.005c0,0,1.188-4.187,5.435-5.839c3.768-1.466,10.046-5.321,12.358-5.981
								C197.88,393.119,221.191,400.461,224.788,405.27z"/>
						</g>
						<g>
							<path style="fill:#3E3F59;" d="M280.735,322.746c-0.966,2.065-3.322,3.757-6.107,5.111
								c-6.12,2.967-14.305,4.285-14.305,4.285s-2.181,0.309-5.058,0.398c-1.434,0.043-3.044,0.03-4.643-0.106
								c-4.036-0.339-8.006-1.451-8.945-4.401c-2.055-6.462,5.875-15.418,6.313-15.859c0.441-0.441,1.47-12.042,1.47-12.042h31.422
								C280.881,300.133,283.818,316.138,280.735,322.746z"/>
							<path style="fill:#2E2D44;" d="M280.881,300.133h-5.314c1.017,11.691-0.279,16.015-4.451,19.398
								c-3.268-4.707-9.091-5.529-12.983-5.486c-2.612,0.029-5.053,1.293-6.563,3.424c-4.593,6.483-2.724,11.996-0.95,14.966
								c1.6,0.136,3.21,0.149,4.643,0.106c2.878-0.09,5.058-0.398,5.058-0.398s0.007-0.001,0.019-0.003
								c0.004-0.001,0.006-0.001,0.011-0.002c0.013-0.002,0.032-0.005,0.055-0.009c0.004-0.001,0.007-0.001,0.011-0.002
								c0.06-0.01,0.147-0.025,0.259-0.045c0.006-0.001,0.011-0.002,0.017-0.003c0.116-0.021,0.257-0.046,0.423-0.077
								c0.001,0,0.002,0,0.004-0.001c0.083-0.016,0.173-0.033,0.268-0.051c0.001,0,0.002,0,0.002,0
								c0.483-0.092,1.11-0.219,1.844-0.381c0,0,0,0,0.001,0c0.439-0.097,0.916-0.206,1.423-0.328
								c0.002-0.001,0.005-0.001,0.007-0.002c0.335-0.081,0.683-0.167,1.041-0.26c0.008-0.002,0.015-0.004,0.023-0.006
								c0.175-0.045,0.352-0.091,0.531-0.139c0.003-0.001,0.007-0.002,0.01-0.003c0.359-0.096,0.728-0.197,1.102-0.304
								c0.026-0.007,0.052-0.015,0.078-0.022c0.179-0.051,0.359-0.104,0.541-0.157c0.004-0.001,0.007-0.002,0.011-0.003
								c0.189-0.056,0.379-0.113,0.57-0.172c0.027-0.008,0.053-0.016,0.08-0.025c0.158-0.049,0.317-0.099,0.477-0.149
								c0.041-0.013,0.082-0.026,0.123-0.039c0.367-0.118,0.737-0.24,1.107-0.368c0.052-0.018,0.103-0.036,0.155-0.054
								c0.138-0.048,0.275-0.097,0.413-0.146c0.053-0.019,0.106-0.038,0.159-0.057c0.177-0.064,0.353-0.129,0.53-0.196
								c0.047-0.018,0.093-0.036,0.14-0.053c0.133-0.051,0.266-0.102,0.399-0.154c0.068-0.027,0.136-0.054,0.204-0.081
								c0.12-0.048,0.239-0.096,0.358-0.145c0.063-0.026,0.125-0.051,0.188-0.077c0.163-0.068,0.325-0.137,0.486-0.207
								c0.073-0.032,0.146-0.064,0.219-0.096c0.1-0.044,0.199-0.089,0.298-0.133c0.081-0.037,0.161-0.073,0.242-0.111
								c0.099-0.046,0.197-0.093,0.296-0.139c0.061-0.029,0.123-0.057,0.183-0.086c0,0,0,0,0-0.001
								c2.785-1.351,5.143-3.044,6.107-5.111C283.818,316.138,280.881,300.133,280.881,300.133z"/>
							<path style="fill:#3E3F59;" d="M249.971,313.276c-4.48,1.449-8.37,8.59-8.81,12.114c-0.441,3.524-2.643,80.834-2.643,80.834
								s16.299-10.058,28.854-8.296c-1.762-9.838-1.909-17.033-1.909-17.033s2.57-50.219-0.514-57.487
								C261.865,316.139,257.46,310.853,249.971,313.276z"/>
							<path style="fill:#2E2D44;" d="M238.518,406.224l45.297,0.514c0,0-0.881-3.377-3.524-4.846
								c-2.643-1.468-10.276-6.167-15.856-7.489C253.417,391.794,238.518,406.224,238.518,406.224z"/>
						</g>
					</g>
					<g>
						<path style="fill:#F39E23;" d="M193.218,290.443l6.314-1.175c0,0,7.783-0.147,11.747-0.44
							c3.965-0.294,19.164-3.893,23.641-12.922c4.606-9.288,8.954-42.878,0.953-39.573c-5.505,6.241-17.839,32.966-17.839,32.966
							s-19.383,3.377-21.292,4.846c-1.909,1.468-2.496,5.727-2.496,5.727s-3.965,0.587-4.405,1.175
							c-0.441,0.587-1.028,4.405-0.294,5.286C190.281,287.212,193.218,290.443,193.218,290.443z"/>
						<g>
							<path style="fill:#FFFFFF;" d="M172.862,291.223h18.372c0,0-3.385-7.07-8.826-6.949
								C176.968,284.395,173.471,289.347,172.862,291.223z"/>
							<path style="fill:#D84554;" d="M180.258,284.284c0,0-2.648,0.228-3.287,0.639c-0.639,0.411-0.867,1.233-0.867,1.233
								s-1.689,0.639-1.917,1.096c-0.228,0.457-0.365,1.324-0.365,1.324s-1.187,0.502-1.37,1.05
								c-0.183,0.548-0.137,1.415,0.411,1.598c0.548,0.183,1.278-1.096,1.278-1.096s1.324-0.502,1.598-1.324
								c1.096,0.137,2.191-0.73,2.465-2.237C179.756,285.654,180.258,284.284,180.258,284.284z"/>
							<path style="fill:#F68962;" d="M192.263,291.406c-0.911,0.457-6.665,0.091-8.58-0.091c-1.555-1.643,3.742-2.1,3.742-2.1
								s0.091-0.914-0.732-2.193c-0.82-1.277-2.829-2.372-3.467-2.466c-0.641-0.091-1.552,1.189-2.694,1.736
								c-0.848,0.407-2.355,0.828-2.328,0.273c0.026-0.538,1.645-2.16,2.967-3.397c1.103-1.033,2.688-1.37,4.111-0.862
								c2.027,0.724,4.664,1.798,5.976,1.978c2.009,0.272,3.379,2.281,3.654,4.108C195.186,290.22,193.177,290.949,192.263,291.406z
								"/>
							<path style="fill:#D84554;" d="M187.425,289.216c0,0,0.091-0.914-0.732-2.193c-0.82-1.277-2.829-2.372-3.467-2.466
								c5.355,0.611,7.122,4.659,7.122,4.659H187.425z"/>
						</g>
					</g>
					<g>
						<path style="fill:#FFCD08;" d="M281.468,301.53c0,0-16.592,0.133-31.671,0.179c-0.514,0.003-1.026,0.003-1.533,0.007
							c-11.743,0.03-22.172,0.003-22.52-0.186c-0.807-0.441-2.055-4.919-1.836-5.729c0.219-0.807,5.58-3.817,5.58-3.817l0.956-7.05
							c0,0,3.303-46.325,5.43-48.602c1.358-1.451,6.522-3.226,10.097-4.328c2.041-0.627,3.561-1.032,3.561-1.032
							c3.449-1.026,13.668-1.026,13.668-1.026s3.409,1.175,7.216,2.546c4.59,1.65,9.765,3.581,10.246,4.063
							c0.88,0.88-0.295,51.905-0.295,51.905s2.569,4.919,3.083,7.415C283.964,298.371,281.468,301.53,281.468,301.53z"/>
						<path style="fill:#F39E23;" d="M250.192,284.274c-0.89,7.02-0.647,13.775-0.395,17.435c-0.514,0.003-1.026,0.003-1.533,0.007
							c0.023-2.041,0.093-5.433,0.275-11.016c0.405-12.371,6.203-54.66,6.203-54.66l1.175-0.66
							C255.917,235.38,251.513,273.849,250.192,284.274z"/>
						<path style="fill:#F39E23;" d="M270.415,232.492c-1.331,6.061-7.119,10.854-7.119,10.854s-3.635-5.838-5.065-6.389
							c-1.431-0.551-3.854,1.653-3.854,1.653s0,0-2.094-0.77c-2.091-0.773-3.412,1.54-7.269,4.624
							c-0.159-2.406,0.558-7.744,0.956-10.459c2.041-0.627,3.561-1.032,3.561-1.032c3.449-1.026,13.668-1.026,13.668-1.026
							S266.608,231.121,270.415,232.492z"/>
						<path style="fill:#F39E23;" d="M260.334,257.258h13.287c0,0,2.907,12.457-5.605,13.495
							C259.504,271.791,260.334,257.258,260.334,257.258z"/>
					</g>
					<g>
						<g>
							<polygon style="fill:#242435;" points="185.464,263.063 186.277,261.388 223.864,261.23 234.127,288.749 232.527,288.749 
															"/>
							<polygon style="fill:#3E3F59;" points="185.464,263.063 222.899,263.154 232.527,288.749 195.136,288.749 							"/>
						</g>
						<rect x="195.136" y="288.749" style="fill:#242435;" width="37.391" height="2.882"/>
						<polygon style="fill:#3E3F59;" points="232.527,291.631 253.275,291.631 253.275,288.684 232.527,288.749 						"/>
					</g>
					<g>
						<g>
							<path style="fill:#FFCD08;" d="M304.925,288.387c-15.069-3.671-22.165-4.723-24.27-9.191
								c-2.101-4.468-6.034-39.551,0.007-42.641c0,0,2.884,1.112,5.775,6.894C289.328,249.231,304.749,281.546,304.925,288.387z"/>
							<path style="fill:#F39E23;" d="M304.925,288.387c-15.069-3.671-22.165-4.723-24.27-9.191
								c-2.101-4.468-6.034-39.551,0.007-42.641c0,0-2.277,4.255,0.073,16.297c2.347,12.042,4.697,21.734,4.697,21.292
								c0-0.441,9.838-1.175,10.425-0.146c0.587,1.026-5.872,2.347-5.433,2.347C290.865,276.345,301.951,278.549,304.925,288.387z"
								/>
							<path style="fill:#FFCD08;" d="M276.373,291.905c-2.526-0.139-4.209-0.329-4.378-0.514c-1.587-1.749,0-7.518,0-7.518
								s1.653-2.864,2.536-2.864c0.88,0,3.834,0.06,3.834,0.06s1.009-4.245,3.654-4.245c2.642,0,22.026,6.718,22.905,11.564
								C305.615,292.18,285.501,292.396,276.373,291.905z"/>
							<path style="fill:#F39E23;" d="M304.925,288.387c-5.324-6.167-20.154-8.663-21.916-8.663c-1.763,0-3.157,3.303-3.157,3.303
								l-3.817-0.511c0,0,1.321,0.734,2.128,3.817c0.292,3.027-0.78,4.673-1.789,5.573c-2.526-0.139-4.209-0.329-4.378-0.514
								c-1.587-1.749,0-7.518,0-7.518s1.653-2.864,2.536-2.864c0.88,0,3.834,0.06,3.834,0.06s1.009-4.245,3.654-4.245
								C284.661,276.823,304.045,283.541,304.925,288.387z"/>
						</g>
						<g>
							<path style="fill:#D84554;" d="M261.681,282.293c0,0-2.565-0.172-3.519,0.085c-0.954,0.257-4.191,6.517-4.045,7.471
								c0.147,0.954,0.933,1.202,1.424,0.514c0.312-0.437,3.244-4.679,3.244-4.679s7.044,2.188,7.815,1.894
								C267.371,287.286,269.647,285.487,261.681,282.293z"/>
							<path style="fill:#D84554;" d="M269.243,290.369c0,0-1.432,0.991-2.57,0.661s-7.672-1.762-7.672-3.267
								s1.872-0.771,2.056-0.734c0.184,0.037,1.432,0.918,3.157,0.661c1.725-0.257,2.716-0.918,3.965,0.11
								C269.427,288.828,269.243,290.369,269.243,290.369z"/>
							<path style="fill:#F68962;" d="M273.17,291.178c-0.402,0.129-0.797,0.199-1.175,0.212c-2.612,0.113-4.624-2.121-4.624-2.121
								s0,2.861-1.248,2.788c-1.248-0.073-0.81-3.598-0.734-6.973c-0.737,1.102-1.507,5.138-1.912,6.349
								c-0.302,0.909-0.699,0.602-1.321,0.551c-1.721-0.141-0.529-2.189,0.442-7.158c-1.026,0.956-2.423,5.764-2.715,6.498
								c-0.295,0.733-1.324,1.248-1.985,0.365c-0.66-0.88,2.718-10.057,3.671-10.13c0.956-0.073,1.763,0.587,1.836,0.956
								c0,0,0.332-0.607,1.211-0.607c0.883,0,1.713,0.813,1.713,0.813s0.362-0.561,1.245-0.641c0.886-0.083,5.523,2.121,6.625,2.562
								C275.301,285.084,276.327,290.149,273.17,291.178z"/>
						</g>
					</g>
					<g>
						<g>
							<g>
								<path style="fill:#D84554;" d="M256.468,237.179c0,0-0.013,1.646-0.033,4.305c-0.003,0.186-0.003,0.378-0.007,0.574
									c-0.003,0.518-0.007,1.072-0.01,1.656c-0.003,0.189-0.003,0.378-0.007,0.574c-0.003,0.531-0.007,1.082-0.013,1.656
									c0,0.189-0.003,0.382-0.003,0.574c-0.003,0.538-0.01,1.089-0.013,1.653c-0.003,0.193-0.003,0.385-0.003,0.577
									c-0.007,0.541-0.01,1.092-0.017,1.653c0,0.193-0.003,0.385-0.003,0.577c-0.007,0.544-0.01,1.095-0.013,1.653
									c-0.003,0.189-0.003,0.382-0.007,0.574c-0.003,0.544-0.01,1.099-0.013,1.656c-0.003,0.189-0.003,0.382-0.007,0.574
									c-0.003,0.551-0.007,1.102-0.013,1.656c0,0.193-0.003,0.382-0.003,0.574c-0.003,0.551-0.01,1.105-0.013,1.656
									c-0.003,0.193-0.007,0.382-0.007,0.574c-0.007,0.551-0.01,1.105-0.017,1.653c0,0.196-0.003,0.388-0.003,0.578
									c-0.007,0.554-0.01,1.105-0.013,1.653c-0.003,0.193-0.007,0.385-0.007,0.578c-0.007,0.558-0.01,1.109-0.017,1.653
									c0,0.193-0.003,0.385-0.007,0.574c-0.003,0.561-0.01,1.112-0.013,1.656c-0.003,0.193-0.007,0.385-0.007,0.577
									c-0.007,0.561-0.01,1.115-0.017,1.653c-0.003,0.196-0.003,0.385-0.007,0.574c-0.007,0.568-0.01,1.122-0.017,1.656
									c-0.003,0.192-0.003,0.385-0.007,0.574c-0.007,0.574-0.013,1.129-0.02,1.656c0,0.196-0.003,0.388-0.003,0.577
									c-0.01,0.587-0.017,1.142-0.02,1.653c-0.003,0.199-0.007,0.392-0.01,0.577c-0.01,0.627-0.017,1.185-0.026,1.656
									c0,0.209-0.003,0.402-0.01,0.577c-0.013,0.777-0.026,1.218-0.036,1.251c-0.013,0.04-0.129,0.206-0.329,0.465
									c-0.133,0.182-0.309,0.412-0.514,0.674c-0.408,0.528-0.936,1.202-1.517,1.932c-0.176,0.219-0.355,0.445-0.538,0.674
									c-2.104,2.652-4.59,5.729-4.59,5.729s-0.903-2.197-1.802-4.544c-0.07-0.176-0.136-0.355-0.206-0.534
									c-0.199-0.525-0.392-1.046-0.574-1.547c-0.066-0.186-0.129-0.365-0.193-0.541c-0.202-0.574-0.382-1.105-0.518-1.553
									c-0.06-0.199-0.113-0.385-0.156-0.548c-0.03-0.116-0.056-0.222-0.076-0.315c-0.037-0.176-0.01-0.637,0.076-1.334
									c0.02-0.179,0.043-0.375,0.073-0.587c0.066-0.488,0.149-1.059,0.252-1.699c0.03-0.193,0.063-0.388,0.093-0.594
									c0.09-0.528,0.183-1.099,0.289-1.706c0.033-0.192,0.066-0.392,0.103-0.591c0.093-0.544,0.196-1.115,0.302-1.706
									c0.033-0.196,0.07-0.392,0.106-0.594c0.1-0.554,0.206-1.125,0.312-1.713c0.037-0.196,0.073-0.395,0.113-0.594
									c0.103-0.558,0.209-1.132,0.319-1.713c0.037-0.196,0.073-0.395,0.113-0.594c0.106-0.561,0.216-1.135,0.325-1.713
									c0.036-0.196,0.076-0.395,0.113-0.594c0.11-0.564,0.219-1.135,0.332-1.713c0.036-0.199,0.073-0.398,0.116-0.597
									c0.106-0.568,0.219-1.138,0.332-1.713c0.036-0.199,0.076-0.398,0.116-0.597c0.11-0.571,0.222-1.142,0.335-1.713
									c0.036-0.199,0.076-0.398,0.116-0.594c0.113-0.574,0.226-1.145,0.339-1.716c0.04-0.199,0.08-0.398,0.119-0.597
									c0.113-0.574,0.226-1.148,0.342-1.716c0.036-0.199,0.076-0.398,0.116-0.594c0.116-0.578,0.232-1.152,0.342-1.716
									c0.043-0.199,0.083-0.398,0.123-0.598c0.116-0.581,0.232-1.155,0.345-1.716c0.04-0.202,0.08-0.402,0.119-0.597
									c0.12-0.584,0.236-1.158,0.349-1.716c0.04-0.202,0.08-0.402,0.119-0.597c0.12-0.591,0.236-1.162,0.349-1.713
									c0.04-0.202,0.083-0.402,0.119-0.601c0.126-0.601,0.242-1.172,0.352-1.716c0.043-0.202,0.083-0.402,0.123-0.598
									c0.056-0.269,0.109-0.528,0.159-0.777c0.558-2.728,0.909-4.424,0.909-4.424L256.468,237.179z"/>
								<path style="fill:#CD4353;" d="M256.468,237.179c0,0-0.329,43.72-0.441,44.048c-0.109,0.332-7.488,9.473-7.488,9.473
									l3.415-10.684c0,0,1.763-26.759,2.642-37.994c-0.704,0.047-1.514-0.209-2.23-0.531c0.558-2.728,0.909-4.424,0.909-4.424
									L256.468,237.179z"/>
								<g>
									<path style="fill:#CD4353;" d="M256.435,241.484c-0.003,0.186-0.003,0.378-0.007,0.574l-4.345,0.807
										c0.043-0.202,0.083-0.402,0.123-0.598L256.435,241.484z"/>
									<path style="fill:#CD4353;" d="M256.419,243.714c-0.003,0.189-0.003,0.378-0.007,0.574l-4.799,0.893
										c0.04-0.202,0.083-0.402,0.119-0.601L256.419,243.714z"/>
									<path style="fill:#CD4353;" d="M256.399,245.945c0,0.189-0.003,0.382-0.003,0.574l-5.251,0.972
										c0.04-0.202,0.08-0.402,0.119-0.597L256.399,245.945z"/>
									<path style="fill:#CD4353;" d="M256.382,248.172c-0.003,0.193-0.003,0.385-0.003,0.577l-5.702,1.055
										c0.04-0.202,0.08-0.402,0.119-0.597L256.382,248.172z"/>
									<path style="fill:#CD4353;" d="M256.362,250.402c0,0.193-0.003,0.385-0.003,0.577l-6.15,1.139
										c0.043-0.199,0.083-0.398,0.123-0.598L256.362,250.402z"/>
									<path style="fill:#CD4353;" d="M256.346,252.633c-0.003,0.189-0.003,0.382-0.007,0.574l-6.589,1.221
										c0.036-0.199,0.076-0.398,0.116-0.594L256.346,252.633z"/>
									<path style="fill:#CD4353;" d="M256.326,254.863c-0.003,0.189-0.003,0.382-0.007,0.574l-7.03,1.304
										c0.04-0.199,0.08-0.398,0.119-0.597L256.326,254.863z"/>
									<path style="fill:#CD4353;" d="M256.306,257.094c0,0.193-0.003,0.382-0.003,0.574l-7.468,1.384
										c0.036-0.199,0.076-0.398,0.116-0.594L256.306,257.094z"/>
									<path style="fill:#CD4353;" d="M256.289,259.324c-0.003,0.193-0.007,0.382-0.007,0.574l-7.9,1.464
										c0.036-0.199,0.076-0.398,0.116-0.597L256.289,259.324z"/>
									<path style="fill:#CD4353;" d="M256.266,261.551c0,0.196-0.003,0.388-0.003,0.578l-8.328,1.543
										c0.036-0.199,0.073-0.398,0.116-0.597L256.266,261.551z"/>
									<path style="fill:#CD4353;" d="M256.249,263.782c-0.003,0.193-0.007,0.385-0.007,0.578l-8.753,1.62
										c0.036-0.196,0.076-0.395,0.113-0.594L256.249,263.782z"/>
									<path style="fill:#CD4353;" d="M256.226,266.012c0,0.193-0.003,0.385-0.007,0.574l-9.167,1.699
										c0.037-0.196,0.073-0.395,0.113-0.594L256.226,266.012z"/>
									<path style="fill:#CD4353;" d="M256.206,268.243c-0.003,0.193-0.007,0.385-0.007,0.577l-9.579,1.773
										c0.037-0.196,0.073-0.395,0.113-0.594L256.206,268.243z"/>
									<path style="fill:#CD4353;" d="M256.183,270.473c-0.003,0.196-0.003,0.385-0.007,0.574l-9.974,1.852
										c0.033-0.196,0.07-0.392,0.106-0.594L256.183,270.473z"/>
									<path style="fill:#CD4353;" d="M256.16,272.704c-0.003,0.192-0.003,0.385-0.007,0.574l-10.356,1.918
										c0.033-0.192,0.066-0.392,0.103-0.591L256.16,272.704z"/>
									<path style="fill:#CD4353;" d="M256.133,274.934c0,0.196-0.003,0.388-0.003,0.577l-10.714,1.985
										c0.03-0.193,0.063-0.388,0.093-0.594L256.133,274.934z"/>
									<path style="fill:#CD4353;" d="M256.11,277.165c-0.003,0.199-0.007,0.392-0.01,0.577l-11.01,2.041
										c0.02-0.179,0.043-0.375,0.073-0.587L256.11,277.165z"/>
									<path style="fill:#CD4353;" d="M256.073,279.398c0,0.209-0.003,0.402-0.01,0.577l-10.817,2.005
										c-0.06-0.199-0.113-0.385-0.156-0.548L256.073,279.398z"/>
									<path style="fill:#CD4353;" d="M255.698,281.692c-0.133,0.182-0.309,0.412-0.514,0.674l-9.227,1.709
										c-0.066-0.186-0.129-0.365-0.193-0.541L255.698,281.692z"/>
									<path style="fill:#CD4353;" d="M253.667,284.297c-0.176,0.219-0.355,0.445-0.538,0.674l-6.393,1.185
										c-0.07-0.176-0.136-0.355-0.206-0.534L253.667,284.297z"/>
								</g>
							</g>
							<g>
								<path style="fill:#D84554;" d="M260.763,234.148c0.037,0.431-0.518,1.477-1.225,2.41c-0.378,0.495-0.8,0.956-1.198,1.281
									c-1.155,0.936-2.423,2.091-4.736,1.374c-1.211-0.375-1.922-1.457-2.317-2.436c-0.355-0.886-0.455-1.686-0.435-1.802
									c0.385-2.148,3.14-3.469,4.736-3.691C257.185,231.065,260.707,233.488,260.763,234.148z"/>
								<path style="fill:#CD4353;" d="M260.763,234.148c0.037,0.431-0.518,1.477-1.225,2.41c-1.693,0.747-3.844,1.513-4.61,1.444
									c-1.268-0.11-2.26-1.265-2.645-1.431c-0.206-0.09-0.624,0.046-0.996,0.206c-0.355-0.886-0.455-1.686-0.435-1.802
									c0.385-2.148,3.14-3.469,4.736-3.691C257.185,231.065,260.707,233.488,260.763,234.148z"/>
							</g>
						</g>
						<g>
							<g>
								<path style="fill:#3E3F59;" d="M270.784,209.314c-1.291,1.938-2.742,3.445-4.282,4.6
									c-8.218,6.164-18.976,2.254-21.787,0.329c-0.07-0.046-0.136-0.093-0.196-0.139c-2.918-2.201-2.884-7.923-2.552-10.459
									c0.491-3.771,3.21-5.082,3.379-5.161c-0.196,0.027-4.239,0.617-4.076-0.511c2.755-4.902,9.526-6.718,13.16-6.884
									c3.634-0.166,9.416,1.982,11.896,6.496C274.694,201.166,270.784,209.314,270.784,209.314z"/>
								<path style="fill:#2E2D44;" d="M268.417,211.681l-0.166-0.495c-0.514,1.039-1.105,1.942-1.749,2.728
									c-8.218,6.164-18.976,2.254-21.787,0.329c-0.554-1.158-0.986-2.549-1.241-4.212c-1.543-10.024,5.782-13.27,5.782-13.27
									s-4.68,0.385-5.231,0.438c-0.551,0.057,0.454-3.234,6.387-4.184c12.389-1.982,14.703,7.49,14.703,7.49
									s2.642,0.385,4.019,3.084C270.508,206.288,268.417,211.681,268.417,211.681z"/>
							</g>
							<g>
								<path style="fill:#FFCD08;" d="M254.303,225.834c0,0-5.139,2.79-5.874,4.846c-0.734,2.056-1.028,7.782-1.028,7.782
									s3.744-3.965,5.066-3.671c1.322,0.294,2.276,1.248,2.276,1.248s3.01-2.423,4.479-1.322c1.468,1.101,4.185,4.552,4.185,4.552
									s3.891-4.919,4.332-7.562c0.441-2.643-4.258-6.828-5.947-7.268C260.103,223.999,254.303,225.834,254.303,225.834z"/>
								<g>
									<path style="fill:#F68962;" d="M263.2,229.946c-0.863,1.875-2.373,3.226-4.64,3.598c-3.156,0.511-4.992,0.219-6.386-1.908
										c-1.394-2.131,0.88-3.747,0.88-4.185c-0.003-0.096-0.01-0.202-0.017-0.315c-0.136-1.948-0.79-6.147-0.79-6.147l9.838-1.909
										c0,0.139,0.319,2.908,0.81,5.277c0.153,0.737,0.322,1.437,0.505,2.005C263.774,227.54,263.714,228.824,263.2,229.946z"/>
									<path style="fill:#D84554;" d="M262.894,224.357c-1.118,0.747-2.718,1.567-4.773,2.028
										c-1.928,0.435-3.704,0.647-5.085,0.75c-0.136-1.948-0.79-6.147-0.79-6.147l9.838-1.909
										C262.084,219.219,262.403,221.987,262.894,224.357z"/>
								</g>
								<g>
									<path style="fill:#F68962;" d="M265.988,214.051c-0.226,2.29-0.687,4.846-1.626,6.277c-1.982,3.01-10.133,4.551-11.673,4.7
										c-1.543,0.146-3.562,0.292-5.47-2.058c-1.168-1.437-2.064-8.082-2.197-13.247c-0.007-0.246-0.01-0.488-0.013-0.727
										c-0.036-2.981,2.363-5.417,5.344-5.44c3.382-0.023,7.525,0.05,9.854,0.1c0.996,0.02,1.869,0.687,2.134,1.646
										c0.163,0.591,0.408,1.298,0.773,2.031c0.454,0.909,1.175,1.402,1.805,1.668c0.785,0.332,1.286,1.109,1.261,1.961
										C266.155,211.803,266.102,212.893,265.988,214.051z"/>
									<path style="fill:#F67159;" d="M265.988,214.051l-0.544-3.469c0,0-0.385,0.11-2.257-0.551
										c-1.872-0.661-2.808-4.242-3.302-4.57c-0.498-0.332-7.82-0.551-11.454,0.329c-2.051,0.498-2.977,2.363-3.409,3.933
										c-0.007-0.246-0.01-0.488-0.013-0.727c-0.036-2.981,2.363-5.417,5.344-5.44c3.382-0.023,7.525,0.05,9.854,0.1
										c0.996,0.02,1.869,0.687,2.134,1.646c0.163,0.591,0.408,1.298,0.773,2.031c0.454,0.909,1.175,1.402,1.805,1.668
										c0.785,0.332,1.286,1.109,1.261,1.961C266.155,211.803,266.102,212.893,265.988,214.051z"/>
								</g>
								<path style="fill:#D84554;" d="M249.971,218.4c0,0,1.211,1.266,3.524,1.101c2.313-0.165,3.469-3.249,3.469-3.249
									S254.266,218.786,249.971,218.4z"/>
								<path style="fill:#D84554;" d="M251.586,208.36c-0.296-0.043-0.614,6.239-0.325,6.46c0.288,0.221,3.102,0.208,2.928-0.154
									c-0.173-0.362-1.742-0.242-2.081-0.558C251.77,213.793,251.883,208.404,251.586,208.36z"/>
								<g>
									<path style="fill:#002734;" d="M256.858,209.681c-0.715-0.311-1.597,0.142-1.733,0.915
										c-0.089,0.507,0.161,0.998,0.569,1.249c0.486,0.363,1.294,0.222,1.661-0.286
										C257.809,210.932,257.577,209.994,256.858,209.681z"/>
									<path style="fill:#002734;" d="M254.569,208.244c0,0,1.25-0.5,2.12-0.36c0.87,0.139,2.092,0.743,2.092,0.743
										s-0.557-1.741-1.95-1.915C255.439,206.538,254.569,208.244,254.569,208.244z"/>
								</g>
								<g>
									<path style="fill:#002734;" d="M249.167,209.681c-0.715-0.311-1.597,0.142-1.733,0.915
										c-0.089,0.507,0.161,0.998,0.569,1.249c0.486,0.363,1.294,0.222,1.661-0.286
										C250.119,210.932,249.886,209.994,249.167,209.681z"/>
									<path style="fill:#002734;" d="M246.724,208.412c0,0,1.115-0.596,1.94-0.55s2.025,0.496,2.025,0.496
										s-0.694-1.591-2.01-1.618C247.365,206.713,246.724,208.412,246.724,208.412z"/>
								</g>
								<g>
									<path style="fill:#F68962;" d="M269.684,207.663c1.431-0.122,2.588,1.597,2.423,3.965
										c-0.165,2.368-2.533,5.451-3.965,5.561c-1.432,0.11-2.203-0.11-2.643-0.991
										C265.059,215.317,267.096,207.883,269.684,207.663z"/>
									<path style="fill:#D84554;" d="M270.556,211.417c0-0.147,0.257-1.872-0.734-2.203c-0.991-0.33-2.129,2.643-2.46,3.487
										c1.064-0.44,1.578,0.404,1.615,1.028c0.037,0.624-1.065,2.166-2.386,1.101c-0.22,0.771-0.22,0.771-0.22,0.771
										s1.836,0.771,2.937-0.697c1.101-1.468-0.257-2.753-0.991-2.79c0.367-0.844,0.954-1.835,1.285-1.835
										C270.055,210.279,270.556,211.417,270.556,211.417z"/>
								</g>
								<g>
									<path style="fill:#F68962;" d="M241.942,207.663c-1.431-0.122-2.588,1.597-2.423,3.965
										c0.165,2.368,2.533,5.451,3.965,5.561c1.432,0.11,2.202-0.11,2.643-0.991C246.568,215.317,244.53,207.883,241.942,207.663z
										"/>
									<path style="fill:#D84554;" d="M241.07,211.417c0-0.147-0.257-1.872,0.734-2.203c0.991-0.33,2.129,2.643,2.46,3.487
										c-1.065-0.44-1.579,0.404-1.615,1.028c-0.037,0.624,1.065,2.166,2.386,1.101c0.22,0.771,0.22,0.771,0.22,0.771
										s-1.836,0.771-2.937-0.697c-1.101-1.468,0.257-2.753,0.991-2.79c-0.367-0.844-0.954-1.835-1.285-1.835
										C241.571,210.279,241.07,211.417,241.07,211.417z"/>
								</g>
							</g>
						</g>
					</g>
				</g>
			</g>
			<g>
				<path style="fill:#FFFFFF;" d="M355.288,283.177c0.363,0.094,1.331,1.755,1.331,1.755l-4.19,2.892h-56.667l1.98-2.032
					l-1.523-2.65l2.166-1l-2.381-2.329l2.354-2.403l-1.688-2.802l1.567-1.129l-0.94-1.466l0.984-1.204l-2.854-0.926l2.661-1.618
					l-1.694-1.673l1.523-1.004l-2.486-1.563l2.997-1.086l-1.771-0.973l1.644-1.149l-1.534-1.688l2.123-0.735l-1.908-1.344
					l1.639-1.282l-0.484-1.18l32.235-0.211l25.895-0.168l-1.144,1.364l1.699,1.759l-1.606,1.712l2.403,2.779l-1.859,2.005
					l1.738,1.751l-2.221,1.11l2.453,1.692l-2.238,1.809l1.408,2.423l-1.787,0.969l2.854,3.353l-2.771,1.614l1.804,3.165
					C356.998,281.711,354.925,283.087,355.288,283.177z"/>
				<path style="fill:#F9EFCD;" d="M355.288,283.177c0.363,0.094,1.331,1.755,1.331,1.755l-4.19,2.892h-23.492l3.486-1.86
					l-2.92-0.907l2.738-1.555l-2.738-1.426l2.007-1.817l-2.739-0.516l3.107-2.075l-3.47-1.555l4.014-2.853h-4.559l5.471-2.075
					l-3.101-0.907l3.283-1.688l-4.014-1.165l3.102-1.688l-1.826-1.684l3.107-2.075l-4.746-1.813l4.746-2.208l-3.288-1.165
					l2.557-1.039l-2.782-1.376l25.895-0.168l-1.144,1.364l1.699,1.759l-1.606,1.712l2.403,2.779l-1.859,2.005l1.738,1.751
					l-2.221,1.11l2.453,1.692l-2.238,1.809l1.408,2.423l-1.787,0.969l2.854,3.353l-2.771,1.614l1.804,3.165
					C356.998,281.711,354.925,283.087,355.288,283.177z"/>
				<path style="fill:#EFD7B2;" d="M301.954,258.346h49.81C351.764,258.346,311.624,263.273,301.954,258.346z"/>
				<path style="fill:#F9EFCD;" d="M301.771,264.051c0,0,5.96-1.988,18.61-0.432C315.394,265.262,301.771,264.051,301.771,264.051z"
					/>
				<path style="fill:#EFD7B2;" d="M300.92,281.167c0,0,5.96-1.988,18.61-0.432C314.543,282.377,300.92,281.167,300.92,281.167z"/>
				<path style="fill:#F9EFCD;" d="M312.718,273.646c0-0.951,39.653-1.21,41.478-0.173
					C352.25,274.684,312.718,274.597,312.718,273.646z"/>
			</g>
			<g>
				<path style="fill:#FFFFFF;" d="M148.867,271.797c-0.87-0.848-0.921-2.274-0.475-3.404c0.446-1.13,1.291-2.046,2.075-2.974
					c0.784-0.928,1.545-1.946,1.76-3.141c0.415-2.301-1.241-4.891-0.015-6.882c1.137-1.846,4.062-1.87,5.228-3.698
					c0.775-1.214,0.498-2.783,0.522-4.223c0.048-2.978,1.624-5.913,4.135-7.515s5.895-1.777,8.512-0.355
					c5.094,2.767,5.667,11.394-0.065,13.868c-0.918,0.396-1.914,0.581-2.849,0.934c-0.936,0.354-1.854,0.927-2.285,1.829
					c-0.696,1.457,0.05,3.363-0.838,4.712c-1.092,1.659-3.686,1.223-5.368,2.28c-1.091,0.685-1.684,1.935-2.087,3.158
					c-0.403,1.224-0.685,2.514-1.391,3.591C154.386,272.023,151.05,272.352,148.867,271.797z"/>
				<g>
					<polygon style="fill:#F9EFCD;" points="145.852,283.853 145.852,287.823 157.068,287.823 156.77,283.556 					"/>
					<path style="fill:#F9EFCD;" d="M146.595,285.706h-2.983c-2.666,0-4.928-1.955-5.315-4.592l-0.562-3.834
						c-0.325-2.22,1.395-4.211,3.639-4.211h4.478v1.985h-4.719c-0.996,0-1.757,0.89-1.601,1.874l0.549,3.476
						c0.314,1.987,2.026,3.45,4.038,3.45h2.264L146.595,285.706z"/>
					<path style="fill:#FFFFFF;" d="M159.68,269.825v12.881c0,1.657-1.343,3-3,3h-10.084c-1.63,0-2.958-1.298-3-2.926l-0.323-12.955
						H159.68z"/>
					<path style="fill:#F9EFCD;" d="M159.68,269.825v12.881c0,1.657-1.343,3-3,3h-2.755v-15.881H159.68z"/>
				</g>
			</g>
			<g>
				<g>
					<rect x="296.138" y="291.122" style="fill:#F9EFCD;" width="5.128" height="113.983"/>
					<rect x="351.501" y="291.122" style="fill:#FFFFFF;" width="5.128" height="111.617"/>
					<rect x="132.65" y="291.123" style="fill:#F9EFCD;" width="5.128" height="113.983"/>
				</g>
				<rect x="297.828" y="293.081" style="fill:#F9EFCD;" width="59.086" height="33.724"/>
				<path style="fill:#F9EFCD;" d="M132.65,287.823v38.981h51.865c6.881,0,13.48-2.733,18.345-7.599l0,0h34.25l0.423,0.403
					c4.849,4.615,11.294,7.177,17.988,7.151c16.213-0.065,45.625-0.154,45.625,0.046c0,0.275,0-38.981,0-38.981H132.65z"/>
				<rect x="132.65" y="287.823" style="fill:#B76D5C;" width="230.29" height="14.067"/>
				<rect x="301.146" y="287.823" style="fill:#B25842;" width="61.793" height="14.067"/>
				<rect x="296.138" y="382.884" style="fill:#F9EFCD;" width="60.491" height="5.128"/>
			</g>
		</g>
		<g>
			<g>
				<path style="fill:#80B230;" d="M314.585,333.141c0.771,4.327-0.946,9.528,2.083,12.711c2.089,2.196,5.736,2.441,7.611,4.821
					c2.014,2.553,1.077,6.21,0.925,9.457c-0.229,4.824,1.759,9.62,5.063,13.099c1.664,1.756,5.022,5.37,7.911,5.491
					c0.707,0.031,1.388-0.149,2.008-0.615c0.202-0.15,0.392-0.31,0.577-0.474c5.289-4.719,4.403-15.125,1.302-20.585
					c-2.11-3.713-5.569-7.031-5.642-11.302c-0.056-3.398,2.128-6.65,1.576-10.005c-0.751-4.531-5.892-6.78-8.464-10.583
					c-3.561-5.27-1.728-12.75-4.902-18.26c-2.651-4.599-8.859-6.771-13.797-4.825c-4.942,1.944-8.003,7.765-6.802,12.936
					C305.63,321.894,313.34,326.184,314.585,333.141z"/>
				<path style="fill:#6B9117;" d="M338.179,378.719c0.707,0.031,1.388-0.149,2.008-0.615c0.202-0.15,0.392-0.31,0.577-0.474
					c-0.419-1.35-0.888-2.689-1.271-3.993c-0.927-3.155-1.863-6.306-2.861-9.44c-1.96-6.161-4.096-12.272-6.333-18.339
					c-2.237-6.068-4.606-12.091-7.094-18.061c-1.229-2.952-2.495-5.889-3.81-8.807c-1.323-2.936-2.484-6.181-4.301-8.85
					c-0.731-1.072-2.482-0.372-2.119,0.926c0.87,3.109,2.541,6.099,3.82,9.059c1.302,3.019,2.594,6.042,3.863,9.078
					c2.451,5.867,4.78,11.788,6.996,17.746c2.215,5.966,4.287,11.976,6.287,18.012c1.036,3.123,2.065,6.249,3.038,9.393
					C337.413,375.758,337.772,377.246,338.179,378.719z"/>
			</g>
			<g>
				<path style="fill:#8BC53F;" d="M355.377,328.338c0.853,4.312,4.341,8.534,2.675,12.6c-1.148,2.805-4.458,4.358-5.341,7.256
					c-0.949,3.11,1.251,6.177,2.572,9.148c1.965,4.411,1.855,9.602,0.04,14.043c-0.913,2.24-2.728,6.827-5.377,7.989
					c-0.647,0.285-1.348,0.365-2.094,0.156c-0.242-0.066-0.478-0.146-0.71-0.232c-6.642-2.476-9.596-12.493-8.69-18.707
					c0.617-4.225,2.635-8.573,1.152-12.58c-1.182-3.186-4.398-5.423-5.102-8.749c-0.946-4.494,3.027-8.457,4.043-12.935
					c1.404-6.203-3.02-12.507-2.064-18.793c0.8-5.247,5.795-9.526,11.102-9.506c5.311,0.017,10.276,4.328,11.036,9.582
					C359.635,314.606,354.009,321.404,355.377,328.338z"/>
				<path style="fill:#80B230;" d="M349.947,379.373c-0.647,0.285-1.348,0.365-2.094,0.156c-0.242-0.066-0.478-0.146-0.71-0.232
					c-0.1-1.411-0.149-2.828-0.266-4.182c-0.282-3.276-0.554-6.552-0.763-9.835c-0.412-6.452-0.641-12.921-0.76-19.387
					c-0.119-6.466-0.099-12.938,0.05-19.404c0.073-3.196,0.186-6.393,0.352-9.589c0.166-3.216,0.07-6.661,0.793-9.808
					c0.292-1.265,2.177-1.248,2.31,0.093c0.319,3.213-0.153,6.605-0.269,9.828c-0.116,3.286-0.222,6.572-0.302,9.861
					c-0.153,6.356-0.173,12.719-0.073,19.075c0.103,6.363,0.355,12.716,0.684,19.065c0.169,3.286,0.345,6.572,0.581,9.855
					C349.585,376.336,349.791,377.853,349.947,379.373z"/>
			</g>
			<g>
				<path style="fill:#80B230;" d="M381.046,333.141c-0.771,4.327,0.946,9.528-2.083,12.711c-2.089,2.196-5.736,2.441-7.611,4.821
					c-2.014,2.553-1.078,6.21-0.926,9.457c0.229,4.824-1.759,9.62-5.063,13.099c-1.664,1.756-5.022,5.37-7.911,5.491
					c-0.707,0.031-1.388-0.149-2.008-0.615c-0.202-0.15-0.392-0.31-0.577-0.474c-5.289-4.719-4.403-15.125-1.302-20.585
					c2.11-3.713,5.569-7.031,5.642-11.302c0.056-3.398-2.128-6.65-1.576-10.005c0.751-4.531,5.892-6.78,8.464-10.583
					c3.561-5.27,1.728-12.75,4.902-18.26c2.651-4.599,8.859-6.771,13.797-4.825c4.942,1.944,8.003,7.765,6.803,12.936
					C390,321.894,382.29,326.184,381.046,333.141z"/>
				<path style="fill:#6B9117;" d="M357.451,378.719c-0.707,0.031-1.388-0.149-2.008-0.615c-0.202-0.15-0.392-0.31-0.577-0.474
					c0.42-1.35,0.888-2.689,1.271-3.993c0.927-3.155,1.863-6.306,2.86-9.44c1.96-6.161,4.096-12.272,6.333-18.339
					c2.237-6.068,4.606-12.091,7.094-18.061c1.229-2.952,2.495-5.889,3.81-8.807c1.323-2.936,2.484-6.181,4.301-8.85
					c0.731-1.072,2.482-0.372,2.119,0.926c-0.87,3.109-2.541,6.099-3.82,9.059c-1.302,3.019-2.594,6.042-3.863,9.078
					c-2.451,5.867-4.78,11.788-6.996,17.746c-2.215,5.966-4.287,11.976-6.287,18.012c-1.036,3.123-2.065,6.249-3.038,9.393
					C358.217,375.758,357.858,377.246,357.451,378.719z"/>
			</g>
			<path style="fill:#3E3F59;" d="M324.272,373.829c0,0,0.661,20.704,6.167,24.448c8.392,0,27.951,0,36.342,0
				c5.506-3.744,6.167-24.448,6.167-24.448H324.272z"/>
			<path style="fill:#F9EFCD;" d="M322.62,392.991l1.432,5.252c1.105,4.052,4.785,6.862,8.985,6.862h31.147
				c4.199,0,7.879-2.811,8.984-6.862l1.432-5.252H322.62z"/>
		</g>
		<g>
			<g>
				<path style="fill:#FFFFFF;" d="M209.744,180.167h-75.198c-3.118,0-5.645,2.527-5.645,5.645v44.068
					c0,3.117,2.527,5.645,5.645,5.645h70.344l10.499,10.499c0,0,0-15.638,0-16.144v-44.068
					C215.389,182.694,212.861,180.167,209.744,180.167z"/>
				<rect x="133.38" y="184.352" style="fill:#3E3F59;" width="77.53" height="46.915"/>
				<path style="fill:#EB008B;" d="M203.99,188.867h-64.425c-0.517,0-0.936-0.419-0.936-0.936l0,0c0-0.517,0.419-0.936,0.936-0.936
					h64.425c0.517,0,0.936,0.419,0.936,0.936l0,0C204.926,188.448,204.507,188.867,203.99,188.867z"/>
				<path style="fill:#EB008B;" d="M203.99,213.426h-64.425c-0.517,0-0.936-0.419-0.936-0.936l0,0c0-0.517,0.419-0.936,0.936-0.936
					h64.425c0.517,0,0.936,0.419,0.936,0.936l0,0C204.926,213.007,204.507,213.426,203.99,213.426z"/>
				<path style="fill:#8BC53F;" d="M164.675,193.933h-25.109c-0.517,0-0.936-0.419-0.936-0.936l0,0c0-0.517,0.419-0.936,0.936-0.936
					h25.109c0.517,0,0.936,0.419,0.936,0.936l0,0C165.611,193.514,165.192,193.933,164.675,193.933z"/>
				<path style="fill:#8BC53F;" d="M164.675,219.263h-25.109c-0.517,0-0.936-0.419-0.936-0.936l0,0c0-0.517,0.419-0.936,0.936-0.936
					h25.109c0.517,0,0.936,0.419,0.936,0.936l0,0C165.611,218.844,165.192,219.263,164.675,219.263z"/>
				<path style="fill:#8BC53F;" d="M164.675,224.549h-25.109c-0.517,0-0.936-0.419-0.936-0.936l0,0c0-0.517,0.419-0.936,0.936-0.936
					h25.109c0.517,0,0.936,0.419,0.936,0.936l0,0C165.611,224.13,165.192,224.549,164.675,224.549z"/>
				<path style="fill:#8BC53F;" d="M171.172,200.431h-25.109c-0.517,0-0.936-0.419-0.936-0.936l0,0c0-0.517,0.419-0.936,0.936-0.936
					h25.109c0.517,0,0.936,0.419,0.936,0.936l0,0C172.108,200.012,171.689,200.431,171.172,200.431z"/>
				<path style="fill:#8BC53F;" d="M171.172,207.479h-25.109c-0.517,0-0.936-0.419-0.936-0.936l0,0c0-0.517,0.419-0.936,0.936-0.936
					h25.109c0.517,0,0.936,0.419,0.936,0.936l0,0C172.108,207.06,171.689,207.479,171.172,207.479z"/>
				<path style="fill:#8BC53F;" d="M200.797,200.431h-25.109c-0.517,0-0.936-0.419-0.936-0.936l0,0c0-0.517,0.419-0.936,0.936-0.936
					h25.109c0.517,0,0.936,0.419,0.936,0.936l0,0C201.733,200.012,201.314,200.431,200.797,200.431z"/>
			</g>
			<g>
				<path style="fill:#FFFFFF;" d="M265.705,121.037h67.74c2.808,0,5.085,2.277,5.085,5.085v39.698c0,2.808-2.277,5.085-5.085,5.085
					h-63.367l-9.457,9.458c0,0,0-14.087,0-14.542v-39.698C260.621,123.313,262.897,121.037,265.705,121.037z"/>
				
					<rect x="264.655" y="124.806" transform="matrix(-1 -1.224647e-16 1.224647e-16 -1 599.1507 291.8743)" style="fill:#3E3F59;" width="69.841" height="42.262"/>
				<path style="fill:#EB008B;" d="M286.815,150.997h35.756c0.466,0,0.843-0.378,0.843-0.843l0,0c0-0.466-0.378-0.843-0.843-0.843
					h-35.756c-0.466,0-0.843,0.378-0.843,0.843l0,0C285.971,150.619,286.349,150.997,286.815,150.997z"/>
				<path style="fill:#EB008B;" d="M292.481,133.998h35.756c0.466,0,0.843-0.378,0.843-0.843l0,0c0-0.466-0.378-0.843-0.843-0.843
					h-35.756c-0.466,0-0.843,0.378-0.843,0.843l0,0C291.638,133.62,292.015,133.998,292.481,133.998z"/>
				<path style="fill:#8BC53F;" d="M306.305,156.255h22.619c0.466,0,0.843-0.378,0.843-0.843l0,0c0-0.466-0.378-0.843-0.843-0.843
					h-22.619c-0.466,0-0.843,0.378-0.843,0.843l0,0C305.461,155.877,305.839,156.255,306.305,156.255z"/>
				<path style="fill:#EB008B;" d="M306.305,161.016h22.619c0.466,0,0.843-0.378,0.843-0.843l0,0c0-0.466-0.378-0.843-0.843-0.843
					h-22.619c-0.466,0-0.843,0.378-0.843,0.843l0,0C305.461,160.639,305.839,161.016,306.305,161.016z"/>
				<path style="fill:#8BC53F;" d="M278.102,156.255h22.619c0.466,0,0.843-0.378,0.843-0.843l0,0c0-0.466-0.378-0.843-0.843-0.843
					h-22.619c-0.466,0-0.843,0.378-0.843,0.843l0,0C277.259,155.877,277.636,156.255,278.102,156.255z"/>
				<path style="fill:#EB008B;" d="M278.102,161.016h22.619c0.466,0,0.843-0.378,0.843-0.843l0,0c0-0.466-0.378-0.843-0.843-0.843
					h-22.619c-0.466,0-0.843,0.378-0.843,0.843l0,0C277.259,160.639,277.636,161.016,278.102,161.016z"/>
				<path style="fill:#8BC53F;" d="M306.305,140.621h22.619c0.466,0,0.843-0.378,0.843-0.843l0,0c0-0.466-0.378-0.843-0.843-0.843
					h-22.619c-0.466,0-0.843,0.378-0.843,0.843l0,0C305.461,140.243,305.839,140.621,306.305,140.621z"/>
				<path style="fill:#EB008B;" d="M306.305,145.383h22.619c0.466,0,0.843-0.378,0.843-0.843l0,0c0-0.466-0.378-0.843-0.843-0.843
					h-22.619c-0.466,0-0.843,0.378-0.843,0.843l0,0C305.461,145.005,305.839,145.383,306.305,145.383z"/>
				<path style="fill:#8BC53F;" d="M278.102,140.621h22.619c0.466,0,0.843-0.378,0.843-0.843l0,0c0-0.466-0.378-0.843-0.843-0.843
					h-22.619c-0.466,0-0.843,0.378-0.843,0.843l0,0C277.259,140.243,277.636,140.621,278.102,140.621z"/>
				<path style="fill:#EB008B;" d="M278.102,145.383h22.619c0.466,0,0.843-0.378,0.843-0.843l0,0c0-0.466-0.378-0.843-0.843-0.843
					h-22.619c-0.466,0-0.843,0.378-0.843,0.843l0,0C277.259,145.005,277.636,145.383,278.102,145.383z"/>
			</g>
			<g>
				<path style="fill:#FFFFFF;" d="M231.162,136.604h-31.809c-2.164,0-3.919,1.755-3.919,3.919v16.831
					c0,2.164,1.755,3.919,3.919,3.919h8.815c1.825,0,3.479,1.073,4.224,2.739l2.057,4.603l2.297-4.734
					c0.774-1.595,2.39-2.607,4.163-2.607h10.253c2.164,0,3.919-1.754,3.919-3.919v-16.831
					C235.081,138.359,233.326,136.604,231.162,136.604z"/>
				<g>
					<path style="fill:#3E3F59;" d="M201.577,148.876l6.048,2.871c0.34,0.161,0.579,0.321,0.715,0.478s0.204,0.348,0.204,0.571
						c0,0.26-0.081,0.471-0.242,0.632c-0.161,0.161-0.375,0.242-0.641,0.242c-0.111,0-0.234-0.019-0.367-0.056
						c-0.133-0.037-0.296-0.099-0.488-0.186l-7.32-3.372c-0.037-0.019-0.096-0.043-0.176-0.074c-0.656-0.303-0.985-0.66-0.985-1.068
						c0-0.415,0.344-0.78,1.031-1.096l0.074-0.046l7.376-3.437c0.248-0.111,0.43-0.184,0.548-0.218
						c0.118-0.034,0.22-0.051,0.307-0.051c0.266,0,0.48,0.081,0.641,0.242c0.161,0.161,0.242,0.372,0.242,0.632
						c0,0.223-0.07,0.417-0.209,0.581c-0.139,0.164-0.376,0.327-0.711,0.488L201.577,148.876z"/>
					<path style="fill:#3E3F59;" d="M218.838,143.19l-5.444,11.659c-0.167,0.365-0.322,0.619-0.464,0.762
						c-0.142,0.142-0.31,0.214-0.502,0.214c-0.285,0-0.537-0.09-0.757-0.269c-0.22-0.18-0.33-0.403-0.33-0.669
						c0-0.18,0.084-0.458,0.251-0.836l0.019-0.037l5.435-11.64c0.173-0.378,0.331-0.638,0.474-0.78
						c0.142-0.142,0.31-0.214,0.502-0.214c0.279,0,0.53,0.09,0.753,0.269c0.223,0.18,0.334,0.403,0.334,0.669
						c0,0.112-0.018,0.229-0.056,0.353C219.015,142.794,218.943,142.967,218.838,143.19z"/>
					<path style="fill:#3E3F59;" d="M228.62,148.876l-6.057-2.871c-0.328-0.161-0.562-0.324-0.701-0.488
						c-0.139-0.164-0.209-0.358-0.209-0.581c0-0.26,0.077-0.471,0.232-0.632c0.155-0.161,0.362-0.242,0.622-0.242
						c0.099,0,0.212,0.019,0.339,0.056c0.127,0.037,0.308,0.108,0.544,0.214l7.358,3.437l0.074,0.046
						c0.688,0.316,1.031,0.681,1.031,1.096c0,0.415-0.331,0.771-0.994,1.068c-0.062,0.037-0.111,0.062-0.149,0.074l-7.348,3.372
						c-0.186,0.087-0.345,0.149-0.478,0.186c-0.133,0.037-0.259,0.056-0.376,0.056c-0.26,0-0.468-0.079-0.622-0.237
						c-0.155-0.158-0.232-0.37-0.232-0.636c0-0.223,0.066-0.413,0.2-0.571c0.133-0.158,0.37-0.317,0.711-0.478L228.62,148.876z"/>
				</g>
			</g>
			<g>
				<g>
					<path style="fill:#FFFFFF;" d="M125.196,209.751h-3c-0.276,0-0.5-0.224-0.5-0.5c0-0.276,0.224-0.5,0.5-0.5h3
						c0.276,0,0.5,0.224,0.5,0.5C125.696,209.527,125.472,209.751,125.196,209.751z M119.282,209.245
						c-0.083,0-0.166-0.021-0.244-0.064c-0.998-0.558-1.741-1.463-2.091-2.548c-0.084-0.263,0.06-0.544,0.323-0.629
						c0.262-0.083,0.544,0.06,0.629,0.323c0.272,0.844,0.85,1.548,1.627,1.982c0.241,0.135,0.327,0.439,0.192,0.681
						C119.627,209.153,119.457,209.245,119.282,209.245z M117.232,204.001c-0.276,0-0.5-0.224-0.5-0.5v-3c0-0.276,0.224-0.5,0.5-0.5
						c0.276,0,0.5,0.224,0.5,0.5v3C117.732,203.777,117.509,204.001,117.232,204.001z M117.232,198.001c-0.276,0-0.5-0.224-0.5-0.5
						v-3c0-0.276,0.224-0.5,0.5-0.5c0.276,0,0.5,0.224,0.5,0.5v3C117.732,197.777,117.509,198.001,117.232,198.001z
						 M117.232,192.001c-0.276,0-0.5-0.224-0.5-0.5v-3c0-0.276,0.224-0.5,0.5-0.5c0.276,0,0.5,0.224,0.5,0.5v3
						C117.732,191.777,117.509,192.001,117.232,192.001z M117.232,186.001c-0.276,0-0.5-0.224-0.5-0.5v-3c0-0.276,0.224-0.5,0.5-0.5
						c0.276,0,0.5,0.224,0.5,0.5v3C117.732,185.777,117.509,186.001,117.232,186.001z M117.59,180.038
						c-0.049,0-0.098-0.007-0.147-0.022c-0.264-0.081-0.412-0.361-0.33-0.625c0.314-1.02,0.813-1.962,1.481-2.8
						c0.172-0.216,0.487-0.251,0.703-0.079c0.216,0.172,0.251,0.487,0.08,0.703c-0.59,0.74-1.03,1.572-1.308,2.472
						C118.002,179.9,117.804,180.038,117.59,180.038z M121.241,175.451c-0.172,0-0.339-0.089-0.433-0.248
						c-0.139-0.239-0.058-0.545,0.18-0.684c0.924-0.539,1.929-0.895,2.986-1.059c0.272-0.038,0.529,0.145,0.571,0.417
						c0.042,0.273-0.145,0.528-0.418,0.571c-0.933,0.145-1.82,0.459-2.635,0.935C121.414,175.429,121.327,175.451,121.241,175.451z
						 M235.046,174.359c-0.276,0-0.499-0.223-0.5-0.5c0-0.276,0.223-0.5,0.5-0.5c0.952-0.002,1.885-0.164,2.772-0.483
						c0.258-0.095,0.545,0.041,0.64,0.302c0.093,0.26-0.041,0.546-0.302,0.64C237.16,174.176,236.114,174.358,235.046,174.359
						L235.046,174.359z M232.046,174.359h-3c-0.276,0-0.5-0.224-0.5-0.5c0-0.276,0.224-0.5,0.5-0.5h3c0.276,0,0.5,0.224,0.5,0.5
						C232.546,174.136,232.322,174.359,232.046,174.359z M226.046,174.359h-3c-0.276,0-0.5-0.224-0.5-0.5c0-0.276,0.224-0.5,0.5-0.5
						h3c0.276,0,0.5,0.224,0.5,0.5C226.546,174.136,226.322,174.359,226.046,174.359z M220.046,174.359h-3
						c-0.276,0-0.5-0.224-0.5-0.5c0-0.276,0.224-0.5,0.5-0.5h3c0.276,0,0.5,0.224,0.5,0.5
						C220.546,174.136,220.322,174.359,220.046,174.359z M214.046,174.359h-3c-0.276,0-0.5-0.224-0.5-0.5c0-0.276,0.224-0.5,0.5-0.5
						h3c0.276,0,0.5,0.224,0.5,0.5C214.546,174.136,214.322,174.359,214.046,174.359z M208.046,174.359h-3
						c-0.276,0-0.5-0.224-0.5-0.5c0-0.276,0.224-0.5,0.5-0.5h3c0.276,0,0.5,0.224,0.5,0.5
						C208.546,174.136,208.322,174.359,208.046,174.359z M202.046,174.359h-3c-0.276,0-0.5-0.224-0.5-0.5c0-0.276,0.224-0.5,0.5-0.5
						h3c0.276,0,0.5,0.224,0.5,0.5C202.546,174.136,202.322,174.359,202.046,174.359z M196.046,174.359h-3
						c-0.276,0-0.5-0.224-0.5-0.5c0-0.276,0.224-0.5,0.5-0.5h3c0.276,0,0.5,0.224,0.5,0.5
						C196.546,174.136,196.322,174.359,196.046,174.359z M190.046,174.359h-3c-0.276,0-0.5-0.224-0.5-0.5c0-0.276,0.224-0.5,0.5-0.5
						h3c0.276,0,0.5,0.224,0.5,0.5C190.546,174.136,190.322,174.359,190.046,174.359z M184.046,174.359h-3
						c-0.276,0-0.5-0.224-0.5-0.5c0-0.276,0.224-0.5,0.5-0.5h3c0.276,0,0.5,0.224,0.5,0.5
						C184.546,174.136,184.322,174.359,184.046,174.359z M178.046,174.359h-3c-0.276,0-0.5-0.224-0.5-0.5c0-0.276,0.224-0.5,0.5-0.5
						h3c0.276,0,0.5,0.224,0.5,0.5C178.546,174.136,178.322,174.359,178.046,174.359z M172.046,174.359h-3
						c-0.276,0-0.5-0.224-0.5-0.5c0-0.276,0.224-0.5,0.5-0.5h3c0.276,0,0.5,0.224,0.5,0.5
						C172.546,174.136,172.322,174.359,172.046,174.359z M166.046,174.359h-3c-0.276,0-0.5-0.224-0.5-0.5c0-0.276,0.224-0.5,0.5-0.5
						h3c0.276,0,0.5,0.224,0.5,0.5C166.546,174.136,166.322,174.359,166.046,174.359z M160.046,174.359h-3
						c-0.276,0-0.5-0.224-0.5-0.5c0-0.276,0.224-0.5,0.5-0.5h3c0.276,0,0.5,0.224,0.5,0.5
						C160.546,174.136,160.322,174.359,160.046,174.359z M154.046,174.359h-3c-0.276,0-0.5-0.224-0.5-0.5c0-0.276,0.224-0.5,0.5-0.5
						h3c0.276,0,0.5,0.224,0.5,0.5C154.546,174.136,154.322,174.359,154.046,174.359z M148.046,174.359h-3
						c-0.276,0-0.5-0.224-0.5-0.5c0-0.276,0.224-0.5,0.5-0.5h3c0.276,0,0.5,0.224,0.5,0.5
						C148.546,174.136,148.322,174.359,148.046,174.359z M142.046,174.359h-3c-0.276,0-0.5-0.224-0.5-0.5c0-0.276,0.224-0.5,0.5-0.5
						h3c0.276,0,0.5,0.224,0.5,0.5C142.546,174.136,142.322,174.359,142.046,174.359z M136.046,174.359h-3
						c-0.276,0-0.5-0.224-0.5-0.5c0-0.276,0.224-0.5,0.5-0.5h3c0.276,0,0.5,0.224,0.5,0.5
						C136.546,174.136,136.322,174.359,136.046,174.359z M130.046,174.359h-3c-0.276,0-0.5-0.224-0.5-0.5c0-0.276,0.224-0.5,0.5-0.5
						h3c0.276,0,0.5,0.224,0.5,0.5C130.546,174.136,130.322,174.359,130.046,174.359z M240.581,172.37
						c-0.145,0-0.288-0.062-0.386-0.182c-0.176-0.213-0.146-0.528,0.068-0.704c0.731-0.604,1.349-1.321,1.834-2.133
						c0.142-0.237,0.449-0.314,0.686-0.172c0.237,0.142,0.314,0.449,0.172,0.686c-0.545,0.91-1.236,1.715-2.057,2.391
						C240.806,172.332,240.693,172.37,240.581,172.37z M243.596,167.321c-0.032,0-0.064-0.003-0.097-0.009
						c-0.271-0.053-0.448-0.316-0.395-0.587c0.102-0.521,0.154-1.055,0.153-1.588v-1.304c0-0.276,0.224-0.5,0.5-0.5
						c0.276,0,0.5,0.224,0.5,0.5v1.304c0,0.597-0.057,1.197-0.172,1.781C244.039,167.155,243.83,167.321,243.596,167.321z
						 M243.758,161.332c-0.276,0-0.5-0.224-0.5-0.5v-3c0-0.276,0.224-0.5,0.5-0.5c0.276,0,0.5,0.224,0.5,0.5v3
						C244.258,161.108,244.034,161.332,243.758,161.332z M243.758,155.332c-0.276,0-0.5-0.224-0.5-0.5v-3c0-0.276,0.224-0.5,0.5-0.5
						c0.276,0,0.5,0.224,0.5,0.5v3C244.258,155.108,244.034,155.332,243.758,155.332z M243.758,149.332c-0.276,0-0.5-0.224-0.5-0.5
						v-3c0-0.276,0.224-0.5,0.5-0.5c0.276,0,0.5,0.224,0.5,0.5v3C244.258,149.108,244.034,149.332,243.758,149.332z
						 M243.758,143.332c-0.276,0-0.5-0.224-0.5-0.5v-3c0-0.276,0.224-0.5,0.5-0.5c0.276,0,0.5,0.224,0.5,0.5v3
						C244.258,143.108,244.034,143.332,243.758,143.332z M243.758,137.332c-0.276,0-0.5-0.224-0.5-0.5v-3c0-0.276,0.224-0.5,0.5-0.5
						c0.276,0,0.5,0.224,0.5,0.5v3C244.258,137.108,244.034,137.332,243.758,137.332z M243.816,131.335
						c-0.023,0-0.046-0.002-0.069-0.005c-0.274-0.038-0.464-0.29-0.426-0.564c0.149-1.073,0.569-2.102,1.216-2.977
						c0.164-0.221,0.477-0.27,0.699-0.104c0.222,0.164,0.269,0.477,0.104,0.699c-0.547,0.74-0.903,1.611-1.029,2.52
						C244.276,131.154,244.061,131.335,243.816,131.335z M247.235,126.706c-0.188,0-0.368-0.106-0.453-0.288
						c-0.117-0.25-0.01-0.547,0.241-0.665c0.87-0.408,1.802-0.615,2.77-0.615h0.358c0.276,0,0.5,0.224,0.5,0.5s-0.224,0.5-0.5,0.5
						h-0.358c-0.82,0-1.609,0.175-2.346,0.52C247.378,126.69,247.306,126.706,247.235,126.706z M253.49,126.138h-0.34
						c-0.276,0-0.5-0.224-0.5-0.5s0.224-0.5,0.5-0.5h0.34c0.276,0,0.5,0.224,0.5,0.5S253.767,126.138,253.49,126.138z"/>
					<path style="fill:#FFFFFF;" d="M126.855,209.472c0,1.527-1.238,2.765-2.765,2.765c-1.527,0-2.765-1.238-2.765-2.765
						c0-1.527,1.238-2.765,2.765-2.765C125.617,206.707,126.855,207.945,126.855,209.472z"/>
					<path style="fill:#FFFFFF;" d="M254.321,126.002c0,1.527-1.238,2.765-2.765,2.765c-1.527,0-2.765-1.238-2.765-2.765
						c0-1.527,1.238-2.765,2.765-2.765C253.083,123.237,254.321,124.475,254.321,126.002z"/>
				</g>
				<path style="fill:#FFFFFF;" d="M324.59,262.512c-0.276,0-0.5-0.224-0.5-0.5v-2.679c0-0.276,0.224-0.5,0.5-0.5
					c0.276,0,0.5,0.224,0.5,0.5v2.679C325.09,262.288,324.866,262.512,324.59,262.512z M324.59,256.833c-0.276,0-0.5-0.224-0.5-0.5
					v-3c0-0.276,0.224-0.5,0.5-0.5c0.276,0,0.5,0.224,0.5,0.5v3C325.09,256.609,324.866,256.833,324.59,256.833z M324.59,250.833
					c-0.276,0-0.5-0.224-0.5-0.5v-3c0-0.276,0.224-0.5,0.5-0.5c0.276,0,0.5,0.224,0.5,0.5v3
					C325.09,250.609,324.866,250.833,324.59,250.833z M324.59,244.833c-0.276,0-0.5-0.224-0.5-0.5v-3c0-0.276,0.224-0.5,0.5-0.5
					c0.276,0,0.5,0.224,0.5,0.5v3C325.09,244.609,324.866,244.833,324.59,244.833z M324.59,238.833c-0.276,0-0.5-0.224-0.5-0.5v-3
					c0-0.276,0.224-0.5,0.5-0.5c0.276,0,0.5,0.224,0.5,0.5v3C325.09,238.609,324.866,238.833,324.59,238.833z M324.59,232.833
					c-0.276,0-0.5-0.224-0.5-0.5v-3c0-0.276,0.224-0.5,0.5-0.5c0.276,0,0.5,0.224,0.5,0.5v3
					C325.09,232.609,324.866,232.833,324.59,232.833z M324.59,226.833c-0.276,0-0.5-0.224-0.5-0.5v-3c0-0.276,0.224-0.5,0.5-0.5
					c0.276,0,0.5,0.224,0.5,0.5v3C325.09,226.609,324.866,226.833,324.59,226.833z M324.59,220.833c-0.276,0-0.5-0.224-0.5-0.5v-3
					c0-0.276,0.224-0.5,0.5-0.5c0.276,0,0.5,0.224,0.5,0.5v3C325.09,220.609,324.866,220.833,324.59,220.833z M324.59,214.833
					c-0.276,0-0.5-0.224-0.5-0.5v-3c0-0.276,0.224-0.5,0.5-0.5c0.276,0,0.5,0.224,0.5,0.5v3
					C325.09,214.609,324.866,214.833,324.59,214.833z M324.59,208.833c-0.276,0-0.5-0.224-0.5-0.5v-3c0-0.276,0.224-0.5,0.5-0.5
					c0.276,0,0.5,0.224,0.5,0.5v3C325.09,208.609,324.866,208.833,324.59,208.833z M324.59,202.833c-0.276,0-0.5-0.224-0.5-0.5v-3
					c0-0.276,0.224-0.5,0.5-0.5c0.276,0,0.5,0.224,0.5,0.5v3C325.09,202.609,324.866,202.833,324.59,202.833z M324.59,196.833
					c-0.276,0-0.5-0.224-0.5-0.5v-3c0-0.276,0.224-0.5,0.5-0.5c0.276,0,0.5,0.224,0.5,0.5v3
					C325.09,196.609,324.866,196.833,324.59,196.833z M324.561,190.834c-0.257,0-0.475-0.197-0.497-0.458
					c-0.08-0.936-0.352-1.827-0.807-2.648c-0.134-0.242-0.046-0.546,0.195-0.68c0.242-0.133,0.545-0.047,0.68,0.195
					c0.523,0.945,0.836,1.971,0.928,3.048c0.024,0.275-0.181,0.517-0.455,0.54C324.591,190.833,324.576,190.834,324.561,190.834z
					 M321.745,185.735c-0.105,0-0.212-0.033-0.303-0.102c-0.749-0.569-1.592-0.965-2.505-1.179
					c-0.269-0.063-0.435-0.332-0.373-0.601c0.063-0.268,0.322-0.436,0.602-0.373c1.05,0.246,2.02,0.702,2.882,1.356
					c0.22,0.167,0.263,0.481,0.096,0.701C322.045,185.667,321.895,185.735,321.745,185.735z M316.066,184.279h-3
					c-0.276,0-0.5-0.224-0.5-0.5s0.224-0.5,0.5-0.5h3c0.276,0,0.5,0.224,0.5,0.5S316.343,184.279,316.066,184.279z M310.066,184.279
					h-3c-0.276,0-0.5-0.224-0.5-0.5s0.224-0.5,0.5-0.5h3c0.276,0,0.5,0.224,0.5,0.5S310.343,184.279,310.066,184.279z
					 M304.066,184.279h-3c-0.276,0-0.5-0.224-0.5-0.5s0.224-0.5,0.5-0.5h3c0.276,0,0.5,0.224,0.5,0.5
					S304.343,184.279,304.066,184.279z M298.066,184.279h-3c-0.276,0-0.5-0.224-0.5-0.5s0.224-0.5,0.5-0.5h3
					c0.276,0,0.5,0.224,0.5,0.5S298.343,184.279,298.066,184.279z M292.066,184.279h-3c-0.276,0-0.5-0.224-0.5-0.5
					s0.224-0.5,0.5-0.5h3c0.276,0,0.5,0.224,0.5,0.5S292.343,184.279,292.066,184.279z M286.066,184.279h-3
					c-0.276,0-0.5-0.224-0.5-0.5s0.224-0.5,0.5-0.5h3c0.276,0,0.5,0.224,0.5,0.5S286.343,184.279,286.066,184.279z M280.066,184.279
					h-3c-0.276,0-0.5-0.224-0.5-0.5s0.224-0.5,0.5-0.5h3c0.276,0,0.5,0.224,0.5,0.5S280.343,184.279,280.066,184.279z
					 M274.066,184.279h-3c-0.276,0-0.5-0.224-0.5-0.5s0.224-0.5,0.5-0.5h3c0.276,0,0.5,0.224,0.5,0.5
					S274.343,184.279,274.066,184.279z M268.066,184.279h-3c-0.276,0-0.5-0.224-0.5-0.5s0.224-0.5,0.5-0.5h3
					c0.276,0,0.5,0.224,0.5,0.5S268.343,184.279,268.066,184.279z M262.066,184.279h-3c-0.276,0-0.5-0.224-0.5-0.5
					s0.224-0.5,0.5-0.5h3c0.276,0,0.5,0.224,0.5,0.5S262.343,184.279,262.066,184.279z M256.066,184.279h-3
					c-0.276,0-0.5-0.224-0.5-0.5s0.224-0.5,0.5-0.5h3c0.276,0,0.5,0.224,0.5,0.5S256.343,184.279,256.066,184.279z M250.067,184.279
					h-3c-0.276,0-0.5-0.224-0.5-0.5s0.224-0.5,0.5-0.5h3c0.276,0,0.5,0.224,0.5,0.5S250.343,184.279,250.067,184.279z
					 M244.067,184.279h-3c-0.276,0-0.5-0.224-0.5-0.5s0.224-0.5,0.5-0.5h3c0.276,0,0.5,0.224,0.5,0.5
					S244.343,184.279,244.067,184.279z M238.067,184.279h-3c-0.276,0-0.5-0.224-0.5-0.5s0.224-0.5,0.5-0.5h3
					c0.276,0,0.5,0.224,0.5,0.5S238.343,184.279,238.067,184.279z M232.095,183.985c-0.047,0-0.094-0.006-0.142-0.021
					c-1.033-0.305-1.975-0.816-2.799-1.52c-0.211-0.179-0.235-0.495-0.056-0.705c0.179-0.21,0.495-0.235,0.705-0.056
					c0.718,0.611,1.537,1.056,2.434,1.321c0.265,0.078,0.416,0.356,0.338,0.621C232.51,183.845,232.311,183.985,232.095,183.985z
					 M227.661,180.206c-0.186,0-0.365-0.104-0.451-0.283c-0.467-0.971-0.72-2.012-0.752-3.095c-0.008-0.276,0.21-0.506,0.485-0.515
					c0.265,0.004,0.506,0.209,0.515,0.485c0.027,0.942,0.247,1.848,0.653,2.691c0.12,0.249,0.015,0.547-0.234,0.667
					C227.808,180.191,227.734,180.206,227.661,180.206z M226.955,174.314c-0.276,0-0.5-0.224-0.5-0.5v-3c0-0.276,0.224-0.5,0.5-0.5
					c0.276,0,0.5,0.224,0.5,0.5v3C227.455,174.09,227.231,174.314,226.955,174.314z M226.955,168.314c-0.276,0-0.5-0.224-0.5-0.5v-3
					c0-0.276,0.224-0.5,0.5-0.5c0.276,0,0.5,0.224,0.5,0.5v3C227.455,168.09,227.231,168.314,226.955,168.314z"/>
			</g>
		</g>
	</g>
</g>
<g id="DESIGN_BY_FREEPIK">
	<g id="XMLID_39_">
		<g id="XMLID_319_">
			<g id="XMLID_338_">
				<path id="XMLID_346_" style="fill:#1D262D;" d="M260.104,465.465c-0.432,0.443-0.803,0.931-1.108,1.453l-0.465-0.241
					c-0.067-0.298-0.349-0.503-0.659-0.466c-0.331,0.039-0.568,0.339-0.529,0.67c0.039,0.331,0.339,0.568,0.67,0.529
					c0.065-0.008,0.127-0.026,0.183-0.052l0.452,0.234c-0.251,0.554-0.433,1.139-0.539,1.744l0.747,0.132
					c0.23-1.306,0.85-2.507,1.792-3.473L260.104,465.465z"/>
				<path id="XMLID_345_" style="fill:#1D262D;" d="M265.592,463.163c-0.171,0-0.341,0.006-0.51,0.017l-0.074-0.626
					c0.188-0.149,0.296-0.389,0.266-0.645c-0.046-0.393-0.402-0.674-0.795-0.628c-0.393,0.046-0.674,0.402-0.628,0.795
					c0.03,0.254,0.189,0.461,0.405,0.564l0.073,0.624c-0.714,0.116-1.403,0.332-2.06,0.646l0.327,0.684
					c0.934-0.447,1.942-0.673,2.995-0.673c0.496,0,0.993,0.053,1.475,0.158l0.161-0.741
					C266.692,463.222,266.142,463.163,265.592,463.163z"/>
				<path id="XMLID_344_" style="fill:#1D262D;" d="M272.194,465.711c0.331-0.04,0.566-0.341,0.526-0.672
					c-0.04-0.331-0.341-0.566-0.672-0.526c-0.309,0.038-0.535,0.304-0.53,0.609l-0.416,0.363c-0.418-0.43-0.89-0.813-1.408-1.139
					l-0.404,0.641c1.134,0.715,2.021,1.726,2.563,2.925l0.691-0.313c-0.251-0.554-0.568-1.072-0.942-1.545l0.402-0.351
					C272.065,465.716,272.129,465.719,272.194,465.711z"/>
				<path id="XMLID_343_" style="fill:#1D262D;" d="M265.044,473.372c-0.386,0.023-0.775,0.035-1.157,0.035
					c-0.88,0-1.733-0.061-2.478-0.179c-0.39-0.062-0.846-0.155-1.27-0.292c1.046,1.861,3.069,3.125,5.388,3.125
					c2.855,0,5.262-1.916,5.95-4.504c-0.682,0.449-1.505,0.825-2.459,1.123C267.839,473.047,266.464,473.286,265.044,473.372z"/>
				<path id="XMLID_339_" style="fill:#1D262D;" d="M265.592,464.68c-3.352,0-6.08,2.666-6.08,5.943
					c0,0.426,0.046,0.849,0.137,1.261c0.673,0.483,2.706,0.89,5.348,0.731c2.879-0.173,5.297-0.957,6.672-2.159
					c-0.005-0.195-0.021-0.39-0.045-0.582C271.244,466.913,268.65,464.68,265.592,464.68z M263.432,471.194
					c-1.02,0-1.85-0.83-1.85-1.85c0-1.02,0.83-1.85,1.85-1.85c1.02,0,1.85,0.83,1.85,1.85
					C265.282,470.365,264.452,471.194,263.432,471.194z M268.17,470.286c-0.75,0-1.36-0.61-1.36-1.36s0.61-1.361,1.36-1.361
					c0.75,0,1.361,0.61,1.361,1.361S268.92,470.286,268.17,470.286z"/>
			</g>
			<path id="XMLID_336_" style="fill:#1D262D;" d="M281.595,466.547c-0.295-0.116-0.805-0.309-1.382-0.237
				c-0.551,0.069-0.844,0.341-0.844,1.007v0.866h2.228v1.717h-2.228v5.455h-1.932v-5.455h-1.34v-1.717h1.34v-0.888
				c0-1.68,0.896-2.783,2.568-2.783c0.643,0,1.157,0.122,1.59,0.308L281.595,466.547z"/>
			<path id="XMLID_334_" style="fill:#1D262D;" d="M286.298,469.879c-0.177-0.03-0.358-0.046-0.526-0.046
				c-0.896,0-1.51,0.548-1.51,1.614v3.908h-1.932v-7.172h1.873v0.785c0.451-0.673,1.14-0.977,2.021-0.977
				c0.414,0,0.848,0.128,1.094,0.337L286.298,469.879z"/>
			<path id="XMLID_331_" style="fill:#1D262D;" d="M293.965,471.757c0,0.222-0.015,0.489-0.037,0.651h-5.085
				c0.207,1.036,0.933,1.488,1.843,1.488c0.622,0,1.295-0.252,1.813-0.688l1.132,1.243c-0.814,0.748-1.85,1.088-3.057,1.088
				c-2.198,0-3.723-1.495-3.723-3.753c0-2.258,1.48-3.797,3.627-3.797C292.544,467.99,293.958,469.522,293.965,471.757z
				 M288.851,471.091h3.175c-0.177-0.918-0.733-1.436-1.562-1.436C289.554,469.655,289.021,470.203,288.851,471.091z"/>
			<path id="XMLID_328_" style="fill:#1D262D;" d="M301.618,471.757c0,0.222-0.015,0.489-0.037,0.651h-5.085
				c0.207,1.036,0.933,1.488,1.843,1.488c0.622,0,1.295-0.252,1.813-0.688l1.132,1.243c-0.814,0.748-1.85,1.088-3.057,1.088
				c-2.198,0-3.723-1.495-3.723-3.753c0-2.258,1.48-3.797,3.627-3.797C300.197,467.99,301.611,469.522,301.618,471.757z
				 M296.504,471.091h3.175c-0.178-0.918-0.733-1.436-1.562-1.436C297.207,469.655,296.674,470.203,296.504,471.091z"/>
			<path id="XMLID_325_" style="fill:#1D262D;" d="M309.964,471.764c0,2.154-1.495,3.775-3.471,3.775
				c-0.962,0-1.643-0.378-2.109-0.933v3.708h-1.924v-10.133h1.887v0.792c0.466-0.585,1.155-0.984,2.139-0.984
				C308.469,467.99,309.964,469.61,309.964,471.764z M304.287,471.764c0,1.132,0.747,1.976,1.843,1.976
				c1.14,0,1.85-0.881,1.85-1.976c0-1.095-0.71-1.976-1.85-1.976C305.035,469.788,304.287,470.632,304.287,471.764z"/>
			<path id="XMLID_322_" style="fill:#1D262D;" d="M313.068,465.836c0,0.696-0.54,1.229-1.236,1.229
				c-0.696,0-1.229-0.533-1.229-1.229c0-0.696,0.533-1.243,1.229-1.243C312.527,464.592,313.068,465.14,313.068,465.836z
				 M312.809,475.354h-1.932v-7.172h1.932V475.354z"/>
			<path id="XMLID_320_" style="fill:#1D262D;" d="M316.032,470.736l2.701-2.554h2.368l-3.479,3.375l3.501,3.797h-2.376
				l-2.716-2.901v2.901H314.1v-10.658h1.932V470.736z"/>
		</g>
		<g id="XMLID_40_">
			<path id="XMLID_80_" style="fill:#1D262D;" d="M184.412,475.289v-1.055c-0.527,0.718-1.391,1.23-2.387,1.23
				c-1.846,0-3.149-1.406-3.149-3.706c0-2.256,1.289-3.721,3.149-3.721c0.952,0,1.816,0.469,2.387,1.245v-3.765h1.099v9.77H184.412z
				 M184.412,473.37v-3.208c-0.395-0.615-1.245-1.143-2.124-1.143c-1.421,0-2.27,1.172-2.27,2.739c0,1.567,0.85,2.724,2.27,2.724
				C183.168,474.483,184.017,473.986,184.412,473.37z"/>
			<path id="XMLID_77_" style="fill:#1D262D;" d="M186.932,471.744c0-2.051,1.465-3.706,3.486-3.706c2.139,0,3.398,1.67,3.398,3.794
				v0.279h-5.727c0.088,1.333,1.025,2.446,2.549,2.446c0.805,0,1.626-0.322,2.182-0.894l0.527,0.718
				c-0.703,0.703-1.655,1.084-2.812,1.084C188.44,475.465,186.932,473.956,186.932,471.744z M190.403,468.947
				c-1.509,0-2.256,1.274-2.314,2.358h4.643C192.718,470.25,192.015,468.947,190.403,468.947z"/>
			<path id="XMLID_75_" style="fill:#1D262D;" d="M194.607,474.351l0.571-0.791c0.469,0.542,1.362,1.011,2.329,1.011
				c1.084,0,1.67-0.513,1.67-1.216c0-1.714-4.38-0.659-4.38-3.281c0-1.098,0.952-2.036,2.636-2.036c1.201,0,2.051,0.454,2.622,1.026
				l-0.513,0.762c-0.424-0.513-1.201-0.894-2.109-0.894c-0.967,0-1.567,0.483-1.567,1.113c0,1.552,4.38,0.527,4.38,3.281
				c0,1.187-0.952,2.138-2.783,2.138C196.306,475.465,195.325,475.113,194.607,474.351z"/>
			<path id="XMLID_72_" style="fill:#1D262D;" d="M201.477,466.471c0-0.41,0.337-0.747,0.732-0.747c0.41,0,0.747,0.337,0.747,0.747
				c0,0.41-0.337,0.732-0.747,0.732C201.814,467.203,201.477,466.881,201.477,466.471z M201.667,475.289v-7.075h1.099v7.075H201.667
				z"/>
			<path id="XMLID_67_" style="fill:#1D262D;" d="M204.582,477.105l0.556-0.82c0.586,0.703,1.289,0.967,2.3,0.967
				c1.172,0,2.27-0.571,2.27-2.124v-1.011c-0.513,0.718-1.377,1.26-2.373,1.26c-1.845,0-3.149-1.377-3.149-3.662
				c0-2.27,1.289-3.677,3.149-3.677c0.952,0,1.802,0.469,2.373,1.245v-1.069h1.098v6.87c0,2.344-1.641,3.076-3.369,3.076
				C206.237,478.16,205.417,477.926,204.582,477.105z M209.709,473.253v-3.091c-0.381-0.615-1.23-1.143-2.109-1.143
				c-1.421,0-2.27,1.128-2.27,2.695c0,1.553,0.849,2.695,2.27,2.695C208.478,474.41,209.328,473.868,209.709,473.253z"/>
			<path id="XMLID_65_" style="fill:#1D262D;" d="M217.413,475.289v-4.629c0-1.245-0.63-1.641-1.582-1.641
				c-0.865,0-1.685,0.527-2.095,1.099v5.17h-1.099v-7.075h1.099v1.025c0.498-0.586,1.465-1.201,2.519-1.201
				c1.48,0,2.256,0.747,2.256,2.285v4.966H217.413z"/>
			<path id="XMLID_62_" style="fill:#1D262D;" d="M219.932,471.744c0-2.051,1.465-3.706,3.486-3.706c2.139,0,3.398,1.67,3.398,3.794
				v0.279h-5.727c0.088,1.333,1.025,2.446,2.549,2.446c0.806,0,1.626-0.322,2.183-0.894l0.527,0.718
				c-0.703,0.703-1.655,1.084-2.812,1.084C221.441,475.465,219.932,473.956,219.932,471.744z M223.404,468.947
				c-1.509,0-2.256,1.274-2.314,2.358h4.643C225.718,470.25,225.015,468.947,223.404,468.947z"/>
			<path id="XMLID_54_" style="fill:#1D262D;" d="M233.35,475.289v-1.055c-0.527,0.718-1.392,1.23-2.388,1.23
				c-1.846,0-3.149-1.406-3.149-3.706c0-2.256,1.289-3.721,3.149-3.721c0.952,0,1.817,0.469,2.388,1.245v-3.765h1.098v9.77H233.35z
				 M233.35,473.37v-3.208c-0.396-0.615-1.245-1.143-2.124-1.143c-1.421,0-2.27,1.172-2.27,2.739c0,1.567,0.849,2.724,2.27,2.724
				C232.105,474.483,232.954,473.986,233.35,473.37z"/>
			<path id="XMLID_46_" style="fill:#1D262D;" d="M239.692,475.289v-9.77h1.098v3.765c0.572-0.776,1.421-1.245,2.388-1.245
				c1.845,0,3.149,1.465,3.149,3.721c0,2.299-1.304,3.706-3.149,3.706c-0.996,0-1.86-0.513-2.388-1.23v1.055H239.692z
				 M242.9,474.483c1.436,0,2.285-1.157,2.285-2.724c0-1.568-0.85-2.739-2.285-2.739c-0.864,0-1.728,0.527-2.109,1.143v3.208
				C241.171,473.986,242.036,474.483,242.9,474.483z"/>
			<path id="XMLID_44_" style="fill:#1D262D;" d="M247.528,477.061c0.161,0.073,0.425,0.117,0.601,0.117
				c0.483,0,0.805-0.161,1.055-0.747l0.469-1.069l-2.959-7.148h1.187l2.358,5.8l2.344-5.8h1.201l-3.545,8.51
				c-0.425,1.025-1.143,1.421-2.08,1.435c-0.234,0-0.601-0.044-0.806-0.103L247.528,477.061z"/>
		</g>
	</g>
</g>
</svg>
